<?xml version="1.0" encoding="utf-8" standalone="no"?>
<!DOCTYPE svg PUBLIC "-//W3C//DTD SVG 1.1//EN"
  "http://www.w3.org/Graphics/SVG/1.1/DTD/svg11.dtd">
<svg xmlns:xlink="http://www.w3.org/1999/xlink" width="648pt" height="360pt" viewBox="0 0 648 360" xmlns="http://www.w3.org/2000/svg" version="1.1">
 <metadata>
  <rdf:RDF xmlns:dc="http://purl.org/dc/elements/1.1/" xmlns:cc="http://creativecommons.org/ns#" xmlns:rdf="http://www.w3.org/1999/02/22-rdf-syntax-ns#">
   <cc:Work>
    <dc:type rdf:resource="http://purl.org/dc/dcmitype/StillImage"/>
    <dc:date>2025-08-30T22:27:13.698002</dc:date>
    <dc:format>image/svg+xml</dc:format>
    <dc:creator>
     <cc:Agent>
      <dc:title>Matplotlib v3.8.4, https://matplotlib.org/</dc:title>
     </cc:Agent>
    </dc:creator>
   </cc:Work>
  </rdf:RDF>
 </metadata>
 <defs>
  <style type="text/css">*{stroke-linejoin: round; stroke-linecap: butt}</style>
 </defs>
 <g id="figure_1">
  <g id="patch_1">
   <path d="M 0 360 
L 648 360 
L 648 0 
L 0 0 
z
" style="fill: #ffffff"/>
  </g>
  <g id="axes_1">
   <g id="patch_2">
    <path d="M 59.01 260.589105 
L 635.04 260.589105 
L 635.04 27.96 
L 59.01 27.96 
z
" style="fill: #ffffff"/>
   </g>
   <g id="matplotlib.axis_1">
    <g id="xtick_1">
     <g id="text_1">
      <!-- Action -->
      <g style="fill: #262626" transform="translate(96.978655 300.359572) rotate(-45) scale(0.11 -0.11)">
       <defs>
        <path id="DejaVuSans-41" d="M 2188 4044 
L 1331 1722 
L 3047 1722 
L 2188 4044 
z
M 1831 4666 
L 2547 4666 
L 4325 0 
L 3669 0 
L 3244 1197 
L 1141 1197 
L 716 0 
L 50 0 
L 1831 4666 
z
" transform="scale(0.015625)"/>
        <path id="DejaVuSans-63" d="M 3122 3366 
L 3122 2828 
Q 2878 2963 2633 3030 
Q 2388 3097 2138 3097 
Q 1578 3097 1268 2742 
Q 959 2388 959 1747 
Q 959 1106 1268 751 
Q 1578 397 2138 397 
Q 2388 397 2633 464 
Q 2878 531 3122 666 
L 3122 134 
Q 2881 22 2623 -34 
Q 2366 -91 2075 -91 
Q 1284 -91 818 406 
Q 353 903 353 1747 
Q 353 2603 823 3093 
Q 1294 3584 2113 3584 
Q 2378 3584 2631 3529 
Q 2884 3475 3122 3366 
z
" transform="scale(0.015625)"/>
        <path id="DejaVuSans-74" d="M 1172 4494 
L 1172 3500 
L 2356 3500 
L 2356 3053 
L 1172 3053 
L 1172 1153 
Q 1172 725 1289 603 
Q 1406 481 1766 481 
L 2356 481 
L 2356 0 
L 1766 0 
Q 1100 0 847 248 
Q 594 497 594 1153 
L 594 3053 
L 172 3053 
L 172 3500 
L 594 3500 
L 594 4494 
L 1172 4494 
z
" transform="scale(0.015625)"/>
        <path id="DejaVuSans-69" d="M 603 3500 
L 1178 3500 
L 1178 0 
L 603 0 
L 603 3500 
z
M 603 4863 
L 1178 4863 
L 1178 4134 
L 603 4134 
L 603 4863 
z
" transform="scale(0.015625)"/>
        <path id="DejaVuSans-6f" d="M 1959 3097 
Q 1497 3097 1228 2736 
Q 959 2375 959 1747 
Q 959 1119 1226 758 
Q 1494 397 1959 397 
Q 2419 397 2687 759 
Q 2956 1122 2956 1747 
Q 2956 2369 2687 2733 
Q 2419 3097 1959 3097 
z
M 1959 3584 
Q 2709 3584 3137 3096 
Q 3566 2609 3566 1747 
Q 3566 888 3137 398 
Q 2709 -91 1959 -91 
Q 1206 -91 779 398 
Q 353 888 353 1747 
Q 353 2609 779 3096 
Q 1206 3584 1959 3584 
z
" transform="scale(0.015625)"/>
        <path id="DejaVuSans-6e" d="M 3513 2113 
L 3513 0 
L 2938 0 
L 2938 2094 
Q 2938 2591 2744 2837 
Q 2550 3084 2163 3084 
Q 1697 3084 1428 2787 
Q 1159 2491 1159 1978 
L 1159 0 
L 581 0 
L 581 3500 
L 1159 3500 
L 1159 2956 
Q 1366 3272 1645 3428 
Q 1925 3584 2291 3584 
Q 2894 3584 3203 3211 
Q 3513 2838 3513 2113 
z
" transform="scale(0.015625)"/>
       </defs>
       <use xlink:href="#DejaVuSans-41"/>
       <use xlink:href="#DejaVuSans-63" x="66.658203"/>
       <use xlink:href="#DejaVuSans-74" x="121.638672"/>
       <use xlink:href="#DejaVuSans-69" x="160.847656"/>
       <use xlink:href="#DejaVuSans-6f" x="188.630859"/>
       <use xlink:href="#DejaVuSans-6e" x="249.8125"/>
      </g>
     </g>
    </g>
    <g id="xtick_2">
     <g id="text_2">
      <!-- Affective -->
      <g style="fill: #262626" transform="translate(188.074897 310.177087) rotate(-45) scale(0.11 -0.11)">
       <defs>
        <path id="DejaVuSans-66" d="M 2375 4863 
L 2375 4384 
L 1825 4384 
Q 1516 4384 1395 4259 
Q 1275 4134 1275 3809 
L 1275 3500 
L 2222 3500 
L 2222 3053 
L 1275 3053 
L 1275 0 
L 697 0 
L 697 3053 
L 147 3053 
L 147 3500 
L 697 3500 
L 697 3744 
Q 697 4328 969 4595 
Q 1241 4863 1831 4863 
L 2375 4863 
z
" transform="scale(0.015625)"/>
        <path id="DejaVuSans-65" d="M 3597 1894 
L 3597 1613 
L 953 1613 
Q 991 1019 1311 708 
Q 1631 397 2203 397 
Q 2534 397 2845 478 
Q 3156 559 3463 722 
L 3463 178 
Q 3153 47 2828 -22 
Q 2503 -91 2169 -91 
Q 1331 -91 842 396 
Q 353 884 353 1716 
Q 353 2575 817 3079 
Q 1281 3584 2069 3584 
Q 2775 3584 3186 3129 
Q 3597 2675 3597 1894 
z
M 3022 2063 
Q 3016 2534 2758 2815 
Q 2500 3097 2075 3097 
Q 1594 3097 1305 2825 
Q 1016 2553 972 2059 
L 3022 2063 
z
" transform="scale(0.015625)"/>
        <path id="DejaVuSans-76" d="M 191 3500 
L 800 3500 
L 1894 563 
L 2988 3500 
L 3597 3500 
L 2284 0 
L 1503 0 
L 191 3500 
z
" transform="scale(0.015625)"/>
       </defs>
       <use xlink:href="#DejaVuSans-41"/>
       <use xlink:href="#DejaVuSans-66" x="64.783203"/>
       <use xlink:href="#DejaVuSans-66" x="99.988281"/>
       <use xlink:href="#DejaVuSans-65" x="135.193359"/>
       <use xlink:href="#DejaVuSans-63" x="196.716797"/>
       <use xlink:href="#DejaVuSans-74" x="251.697266"/>
       <use xlink:href="#DejaVuSans-69" x="290.90625"/>
       <use xlink:href="#DejaVuSans-76" x="318.689453"/>
       <use xlink:href="#DejaVuSans-65" x="377.869141"/>
      </g>
     </g>
    </g>
    <g id="xtick_3">
     <g id="text_3">
      <!-- Social -->
      <g style="fill: #262626" transform="translate(289.637646 299.06159) rotate(-45) scale(0.11 -0.11)">
       <defs>
        <path id="DejaVuSans-53" d="M 3425 4513 
L 3425 3897 
Q 3066 4069 2747 4153 
Q 2428 4238 2131 4238 
Q 1616 4238 1336 4038 
Q 1056 3838 1056 3469 
Q 1056 3159 1242 3001 
Q 1428 2844 1947 2747 
L 2328 2669 
Q 3034 2534 3370 2195 
Q 3706 1856 3706 1288 
Q 3706 609 3251 259 
Q 2797 -91 1919 -91 
Q 1588 -91 1214 -16 
Q 841 59 441 206 
L 441 856 
Q 825 641 1194 531 
Q 1563 422 1919 422 
Q 2459 422 2753 634 
Q 3047 847 3047 1241 
Q 3047 1584 2836 1778 
Q 2625 1972 2144 2069 
L 1759 2144 
Q 1053 2284 737 2584 
Q 422 2884 422 3419 
Q 422 4038 858 4394 
Q 1294 4750 2059 4750 
Q 2388 4750 2728 4690 
Q 3069 4631 3425 4513 
z
" transform="scale(0.015625)"/>
        <path id="DejaVuSans-61" d="M 2194 1759 
Q 1497 1759 1228 1600 
Q 959 1441 959 1056 
Q 959 750 1161 570 
Q 1363 391 1709 391 
Q 2188 391 2477 730 
Q 2766 1069 2766 1631 
L 2766 1759 
L 2194 1759 
z
M 3341 1997 
L 3341 0 
L 2766 0 
L 2766 531 
Q 2569 213 2275 61 
Q 1981 -91 1556 -91 
Q 1019 -91 701 211 
Q 384 513 384 1019 
Q 384 1609 779 1909 
Q 1175 2209 1959 2209 
L 2766 2209 
L 2766 2266 
Q 2766 2663 2505 2880 
Q 2244 3097 1772 3097 
Q 1472 3097 1187 3025 
Q 903 2953 641 2809 
L 641 3341 
Q 956 3463 1253 3523 
Q 1550 3584 1831 3584 
Q 2591 3584 2966 3190 
Q 3341 2797 3341 1997 
z
" transform="scale(0.015625)"/>
        <path id="DejaVuSans-6c" d="M 603 4863 
L 1178 4863 
L 1178 0 
L 603 0 
L 603 4863 
z
" transform="scale(0.015625)"/>
       </defs>
       <use xlink:href="#DejaVuSans-53"/>
       <use xlink:href="#DejaVuSans-6f" x="63.476562"/>
       <use xlink:href="#DejaVuSans-63" x="124.658203"/>
       <use xlink:href="#DejaVuSans-69" x="179.638672"/>
       <use xlink:href="#DejaVuSans-61" x="207.421875"/>
       <use xlink:href="#DejaVuSans-6c" x="268.701172"/>
      </g>
     </g>
    </g>
    <g id="xtick_4">
     <g id="text_4">
      <!-- Indoor -->
      <g style="fill: #262626" transform="translate(384.734787 300.877307) rotate(-45) scale(0.11 -0.11)">
       <defs>
        <path id="DejaVuSans-49" d="M 628 4666 
L 1259 4666 
L 1259 0 
L 628 0 
L 628 4666 
z
" transform="scale(0.015625)"/>
        <path id="DejaVuSans-64" d="M 2906 2969 
L 2906 4863 
L 3481 4863 
L 3481 0 
L 2906 0 
L 2906 525 
Q 2725 213 2448 61 
Q 2172 -91 1784 -91 
Q 1150 -91 751 415 
Q 353 922 353 1747 
Q 353 2572 751 3078 
Q 1150 3584 1784 3584 
Q 2172 3584 2448 3432 
Q 2725 3281 2906 2969 
z
M 947 1747 
Q 947 1113 1208 752 
Q 1469 391 1925 391 
Q 2381 391 2643 752 
Q 2906 1113 2906 1747 
Q 2906 2381 2643 2742 
Q 2381 3103 1925 3103 
Q 1469 3103 1208 2742 
Q 947 2381 947 1747 
z
" transform="scale(0.015625)"/>
        <path id="DejaVuSans-72" d="M 2631 2963 
Q 2534 3019 2420 3045 
Q 2306 3072 2169 3072 
Q 1681 3072 1420 2755 
Q 1159 2438 1159 1844 
L 1159 0 
L 581 0 
L 581 3500 
L 1159 3500 
L 1159 2956 
Q 1341 3275 1631 3429 
Q 1922 3584 2338 3584 
Q 2397 3584 2469 3576 
Q 2541 3569 2628 3553 
L 2631 2963 
z
" transform="scale(0.015625)"/>
       </defs>
       <use xlink:href="#DejaVuSans-49"/>
       <use xlink:href="#DejaVuSans-6e" x="29.492188"/>
       <use xlink:href="#DejaVuSans-64" x="92.871094"/>
       <use xlink:href="#DejaVuSans-6f" x="156.347656"/>
       <use xlink:href="#DejaVuSans-6f" x="217.529297"/>
       <use xlink:href="#DejaVuSans-72" x="278.710938"/>
      </g>
     </g>
    </g>
    <g id="xtick_5">
     <g id="text_5">
      <!-- OutdoorManMade -->
      <g style="fill: #262626" transform="translate(458.496639 345.363605) rotate(-45) scale(0.11 -0.11)">
       <defs>
        <path id="DejaVuSans-4f" d="M 2522 4238 
Q 1834 4238 1429 3725 
Q 1025 3213 1025 2328 
Q 1025 1447 1429 934 
Q 1834 422 2522 422 
Q 3209 422 3611 934 
Q 4013 1447 4013 2328 
Q 4013 3213 3611 3725 
Q 3209 4238 2522 4238 
z
M 2522 4750 
Q 3503 4750 4090 4092 
Q 4678 3434 4678 2328 
Q 4678 1225 4090 567 
Q 3503 -91 2522 -91 
Q 1538 -91 948 565 
Q 359 1222 359 2328 
Q 359 3434 948 4092 
Q 1538 4750 2522 4750 
z
" transform="scale(0.015625)"/>
        <path id="DejaVuSans-75" d="M 544 1381 
L 544 3500 
L 1119 3500 
L 1119 1403 
Q 1119 906 1312 657 
Q 1506 409 1894 409 
Q 2359 409 2629 706 
Q 2900 1003 2900 1516 
L 2900 3500 
L 3475 3500 
L 3475 0 
L 2900 0 
L 2900 538 
Q 2691 219 2414 64 
Q 2138 -91 1772 -91 
Q 1169 -91 856 284 
Q 544 659 544 1381 
z
M 1991 3584 
L 1991 3584 
z
" transform="scale(0.015625)"/>
        <path id="DejaVuSans-4d" d="M 628 4666 
L 1569 4666 
L 2759 1491 
L 3956 4666 
L 4897 4666 
L 4897 0 
L 4281 0 
L 4281 4097 
L 3078 897 
L 2444 897 
L 1241 4097 
L 1241 0 
L 628 0 
L 628 4666 
z
" transform="scale(0.015625)"/>
       </defs>
       <use xlink:href="#DejaVuSans-4f"/>
       <use xlink:href="#DejaVuSans-75" x="78.710938"/>
       <use xlink:href="#DejaVuSans-74" x="142.089844"/>
       <use xlink:href="#DejaVuSans-64" x="181.298828"/>
       <use xlink:href="#DejaVuSans-6f" x="244.775391"/>
       <use xlink:href="#DejaVuSans-6f" x="305.957031"/>
       <use xlink:href="#DejaVuSans-72" x="367.138672"/>
       <use xlink:href="#DejaVuSans-4d" x="408.251953"/>
       <use xlink:href="#DejaVuSans-61" x="494.53125"/>
       <use xlink:href="#DejaVuSans-6e" x="555.810547"/>
       <use xlink:href="#DejaVuSans-4d" x="619.189453"/>
       <use xlink:href="#DejaVuSans-61" x="705.46875"/>
       <use xlink:href="#DejaVuSans-64" x="766.748047"/>
       <use xlink:href="#DejaVuSans-65" x="830.224609"/>
      </g>
     </g>
    </g>
    <g id="xtick_6">
     <g id="text_6">
      <!-- OutdoorNatural -->
      <g style="fill: #262626" transform="translate(558.961328 336.444226) rotate(-45) scale(0.11 -0.11)">
       <defs>
        <path id="DejaVuSans-4e" d="M 628 4666 
L 1478 4666 
L 3547 763 
L 3547 4666 
L 4159 4666 
L 4159 0 
L 3309 0 
L 1241 3903 
L 1241 0 
L 628 0 
L 628 4666 
z
" transform="scale(0.015625)"/>
       </defs>
       <use xlink:href="#DejaVuSans-4f"/>
       <use xlink:href="#DejaVuSans-75" x="78.710938"/>
       <use xlink:href="#DejaVuSans-74" x="142.089844"/>
       <use xlink:href="#DejaVuSans-64" x="181.298828"/>
       <use xlink:href="#DejaVuSans-6f" x="244.775391"/>
       <use xlink:href="#DejaVuSans-6f" x="305.957031"/>
       <use xlink:href="#DejaVuSans-72" x="367.138672"/>
       <use xlink:href="#DejaVuSans-4e" x="408.251953"/>
       <use xlink:href="#DejaVuSans-61" x="483.056641"/>
       <use xlink:href="#DejaVuSans-74" x="544.335938"/>
       <use xlink:href="#DejaVuSans-75" x="583.544922"/>
       <use xlink:href="#DejaVuSans-72" x="646.923828"/>
       <use xlink:href="#DejaVuSans-61" x="688.037109"/>
       <use xlink:href="#DejaVuSans-6c" x="749.316406"/>
      </g>
     </g>
    </g>
   </g>
   <g id="matplotlib.axis_2">
    <g id="ytick_1">
     <g id="line2d_1">
      <path d="M 59.01 259.514201 
L 635.04 259.514201 
" clip-path="url(#p13eb2e0cd1)" style="fill: none; stroke: #cccccc; stroke-linecap: round"/>
     </g>
     <g id="text_7">
      <!-- 0 -->
      <g style="fill: #262626" transform="translate(42.51125 263.693342) scale(0.11 -0.11)">
       <defs>
        <path id="DejaVuSans-30" d="M 2034 4250 
Q 1547 4250 1301 3770 
Q 1056 3291 1056 2328 
Q 1056 1369 1301 889 
Q 1547 409 2034 409 
Q 2525 409 2770 889 
Q 3016 1369 3016 2328 
Q 3016 3291 2770 3770 
Q 2525 4250 2034 4250 
z
M 2034 4750 
Q 2819 4750 3233 4129 
Q 3647 3509 3647 2328 
Q 3647 1150 3233 529 
Q 2819 -91 2034 -91 
Q 1250 -91 836 529 
Q 422 1150 422 2328 
Q 422 3509 836 4129 
Q 1250 4750 2034 4750 
z
" transform="scale(0.015625)"/>
       </defs>
       <use xlink:href="#DejaVuSans-30"/>
      </g>
     </g>
    </g>
    <g id="ytick_2">
     <g id="line2d_2">
      <path d="M 59.01 209.518692 
L 635.04 209.518692 
" clip-path="url(#p13eb2e0cd1)" style="fill: none; stroke: #cccccc; stroke-linecap: round"/>
     </g>
     <g id="text_8">
      <!-- 200 -->
      <g style="fill: #262626" transform="translate(28.51375 213.697832) scale(0.11 -0.11)">
       <defs>
        <path id="DejaVuSans-32" d="M 1228 531 
L 3431 531 
L 3431 0 
L 469 0 
L 469 531 
Q 828 903 1448 1529 
Q 2069 2156 2228 2338 
Q 2531 2678 2651 2914 
Q 2772 3150 2772 3378 
Q 2772 3750 2511 3984 
Q 2250 4219 1831 4219 
Q 1534 4219 1204 4116 
Q 875 4013 500 3803 
L 500 4441 
Q 881 4594 1212 4672 
Q 1544 4750 1819 4750 
Q 2544 4750 2975 4387 
Q 3406 4025 3406 3419 
Q 3406 3131 3298 2873 
Q 3191 2616 2906 2266 
Q 2828 2175 2409 1742 
Q 1991 1309 1228 531 
z
" transform="scale(0.015625)"/>
       </defs>
       <use xlink:href="#DejaVuSans-32"/>
       <use xlink:href="#DejaVuSans-30" x="63.623047"/>
       <use xlink:href="#DejaVuSans-30" x="127.246094"/>
      </g>
     </g>
    </g>
    <g id="ytick_3">
     <g id="line2d_3">
      <path d="M 59.01 159.523183 
L 635.04 159.523183 
" clip-path="url(#p13eb2e0cd1)" style="fill: none; stroke: #cccccc; stroke-linecap: round"/>
     </g>
     <g id="text_9">
      <!-- 400 -->
      <g style="fill: #262626" transform="translate(28.51375 163.702323) scale(0.11 -0.11)">
       <defs>
        <path id="DejaVuSans-34" d="M 2419 4116 
L 825 1625 
L 2419 1625 
L 2419 4116 
z
M 2253 4666 
L 3047 4666 
L 3047 1625 
L 3713 1625 
L 3713 1100 
L 3047 1100 
L 3047 0 
L 2419 0 
L 2419 1100 
L 313 1100 
L 313 1709 
L 2253 4666 
z
" transform="scale(0.015625)"/>
       </defs>
       <use xlink:href="#DejaVuSans-34"/>
       <use xlink:href="#DejaVuSans-30" x="63.623047"/>
       <use xlink:href="#DejaVuSans-30" x="127.246094"/>
      </g>
     </g>
    </g>
    <g id="ytick_4">
     <g id="line2d_4">
      <path d="M 59.01 109.527673 
L 635.04 109.527673 
" clip-path="url(#p13eb2e0cd1)" style="fill: none; stroke: #cccccc; stroke-linecap: round"/>
     </g>
     <g id="text_10">
      <!-- 600 -->
      <g style="fill: #262626" transform="translate(28.51375 113.706814) scale(0.11 -0.11)">
       <defs>
        <path id="DejaVuSans-36" d="M 2113 2584 
Q 1688 2584 1439 2293 
Q 1191 2003 1191 1497 
Q 1191 994 1439 701 
Q 1688 409 2113 409 
Q 2538 409 2786 701 
Q 3034 994 3034 1497 
Q 3034 2003 2786 2293 
Q 2538 2584 2113 2584 
z
M 3366 4563 
L 3366 3988 
Q 3128 4100 2886 4159 
Q 2644 4219 2406 4219 
Q 1781 4219 1451 3797 
Q 1122 3375 1075 2522 
Q 1259 2794 1537 2939 
Q 1816 3084 2150 3084 
Q 2853 3084 3261 2657 
Q 3669 2231 3669 1497 
Q 3669 778 3244 343 
Q 2819 -91 2113 -91 
Q 1303 -91 875 529 
Q 447 1150 447 2328 
Q 447 3434 972 4092 
Q 1497 4750 2381 4750 
Q 2619 4750 2861 4703 
Q 3103 4656 3366 4563 
z
" transform="scale(0.015625)"/>
       </defs>
       <use xlink:href="#DejaVuSans-36"/>
       <use xlink:href="#DejaVuSans-30" x="63.623047"/>
       <use xlink:href="#DejaVuSans-30" x="127.246094"/>
      </g>
     </g>
    </g>
    <g id="ytick_5">
     <g id="line2d_5">
      <path d="M 59.01 59.532164 
L 635.04 59.532164 
" clip-path="url(#p13eb2e0cd1)" style="fill: none; stroke: #cccccc; stroke-linecap: round"/>
     </g>
     <g id="text_11">
      <!-- 800 -->
      <g style="fill: #262626" transform="translate(28.51375 63.711305) scale(0.11 -0.11)">
       <defs>
        <path id="DejaVuSans-38" d="M 2034 2216 
Q 1584 2216 1326 1975 
Q 1069 1734 1069 1313 
Q 1069 891 1326 650 
Q 1584 409 2034 409 
Q 2484 409 2743 651 
Q 3003 894 3003 1313 
Q 3003 1734 2745 1975 
Q 2488 2216 2034 2216 
z
M 1403 2484 
Q 997 2584 770 2862 
Q 544 3141 544 3541 
Q 544 4100 942 4425 
Q 1341 4750 2034 4750 
Q 2731 4750 3128 4425 
Q 3525 4100 3525 3541 
Q 3525 3141 3298 2862 
Q 3072 2584 2669 2484 
Q 3125 2378 3379 2068 
Q 3634 1759 3634 1313 
Q 3634 634 3220 271 
Q 2806 -91 2034 -91 
Q 1263 -91 848 271 
Q 434 634 434 1313 
Q 434 1759 690 2068 
Q 947 2378 1403 2484 
z
M 1172 3481 
Q 1172 3119 1398 2916 
Q 1625 2713 2034 2713 
Q 2441 2713 2670 2916 
Q 2900 3119 2900 3481 
Q 2900 3844 2670 4047 
Q 2441 4250 2034 4250 
Q 1625 4250 1398 4047 
Q 1172 3844 1172 3481 
z
" transform="scale(0.015625)"/>
       </defs>
       <use xlink:href="#DejaVuSans-38"/>
       <use xlink:href="#DejaVuSans-30" x="63.623047"/>
       <use xlink:href="#DejaVuSans-30" x="127.246094"/>
      </g>
     </g>
    </g>
    <g id="text_12">
     <!-- Pixels -->
     <g style="fill: #262626" transform="translate(22.018125 161.272365) rotate(-90) scale(0.12 -0.12)">
      <defs>
       <path id="DejaVuSans-50" d="M 1259 4147 
L 1259 2394 
L 2053 2394 
Q 2494 2394 2734 2622 
Q 2975 2850 2975 3272 
Q 2975 3691 2734 3919 
Q 2494 4147 2053 4147 
L 1259 4147 
z
M 628 4666 
L 2053 4666 
Q 2838 4666 3239 4311 
Q 3641 3956 3641 3272 
Q 3641 2581 3239 2228 
Q 2838 1875 2053 1875 
L 1259 1875 
L 1259 0 
L 628 0 
L 628 4666 
z
" transform="scale(0.015625)"/>
       <path id="DejaVuSans-78" d="M 3513 3500 
L 2247 1797 
L 3578 0 
L 2900 0 
L 1881 1375 
L 863 0 
L 184 0 
L 1544 1831 
L 300 3500 
L 978 3500 
L 1906 2253 
L 2834 3500 
L 3513 3500 
z
" transform="scale(0.015625)"/>
       <path id="DejaVuSans-73" d="M 2834 3397 
L 2834 2853 
Q 2591 2978 2328 3040 
Q 2066 3103 1784 3103 
Q 1356 3103 1142 2972 
Q 928 2841 928 2578 
Q 928 2378 1081 2264 
Q 1234 2150 1697 2047 
L 1894 2003 
Q 2506 1872 2764 1633 
Q 3022 1394 3022 966 
Q 3022 478 2636 193 
Q 2250 -91 1575 -91 
Q 1294 -91 989 -36 
Q 684 19 347 128 
L 347 722 
Q 666 556 975 473 
Q 1284 391 1588 391 
Q 1994 391 2212 530 
Q 2431 669 2431 922 
Q 2431 1156 2273 1281 
Q 2116 1406 1581 1522 
L 1381 1569 
Q 847 1681 609 1914 
Q 372 2147 372 2553 
Q 372 3047 722 3315 
Q 1072 3584 1716 3584 
Q 2034 3584 2315 3537 
Q 2597 3491 2834 3397 
z
" transform="scale(0.015625)"/>
      </defs>
      <use xlink:href="#DejaVuSans-50"/>
      <use xlink:href="#DejaVuSans-69" x="58.052734"/>
      <use xlink:href="#DejaVuSans-78" x="85.835938"/>
      <use xlink:href="#DejaVuSans-65" x="141.890625"/>
      <use xlink:href="#DejaVuSans-6c" x="203.414062"/>
      <use xlink:href="#DejaVuSans-73" x="231.197266"/>
     </g>
    </g>
   </g>
   <g id="patch_3">
    <path d="M 85.411375 223.267457 
L 128.613625 223.267457 
L 128.613625 174.521835 
L 85.411375 174.521835 
L 85.411375 223.267457 
z
" clip-path="url(#p13eb2e0cd1)" style="fill: #80c161; stroke: #191919; stroke-width: 1.6; stroke-linejoin: miter"/>
   </g>
   <g id="line2d_6">
    <path d="M 107.0125 223.267457 
L 107.0125 245.265481 
" clip-path="url(#p13eb2e0cd1)" style="fill: none; stroke: #191919; stroke-width: 1.6"/>
   </g>
   <g id="line2d_7">
    <path d="M 107.0125 174.521835 
L 107.0125 102.77828 
" clip-path="url(#p13eb2e0cd1)" style="fill: none; stroke: #191919; stroke-width: 1.6"/>
   </g>
   <g id="line2d_8">
    <path d="M 96.211937 245.265481 
L 117.813062 245.265481 
" clip-path="url(#p13eb2e0cd1)" style="fill: none; stroke: #191919; stroke-width: 1.6; stroke-linecap: round"/>
   </g>
   <g id="line2d_9">
    <path d="M 96.211937 102.77828 
L 117.813062 102.77828 
" clip-path="url(#p13eb2e0cd1)" style="fill: none; stroke: #191919; stroke-width: 1.6; stroke-linecap: round"/>
   </g>
   <g id="line2d_10">
    <defs>
     <path id="m99672673e1" d="M 0 3 
C 0.795609 3 1.55874 2.683901 2.12132 2.12132 
C 2.683901 1.55874 3 0.795609 3 0 
C 3 -0.795609 2.683901 -1.55874 2.12132 -2.12132 
C 1.55874 -2.683901 0.795609 -3 0 -3 
C -0.795609 -3 -1.55874 -2.683901 -2.12132 -2.12132 
C -2.683901 -1.55874 -3 -0.795609 -3 0 
C -3 0.795609 -2.683901 1.55874 -2.12132 2.12132 
C -1.55874 2.683901 -0.795609 3 0 3 
z
" style="stroke: #191919"/>
    </defs>
    <g clip-path="url(#p13eb2e0cd1)">
     <use xlink:href="#m99672673e1" x="107.0125" y="57.032389" style="fill-opacity: 0; stroke: #191919"/>
    </g>
   </g>
   <g id="patch_4">
    <path d="M 181.416375 217.018018 
L 224.618625 217.018018 
L 224.618625 169.959745 
L 181.416375 169.959745 
L 181.416375 217.018018 
z
" clip-path="url(#p13eb2e0cd1)" style="fill: #4a4c7e; stroke: #191919; stroke-width: 1.6; stroke-linejoin: miter"/>
   </g>
   <g id="line2d_11">
    <path d="M 203.0175 217.018018 
L 203.0175 249.515099 
" clip-path="url(#p13eb2e0cd1)" style="fill: none; stroke: #191919; stroke-width: 1.6"/>
   </g>
   <g id="line2d_12">
    <path d="M 203.0175 169.959745 
L 203.0175 101.778369 
" clip-path="url(#p13eb2e0cd1)" style="fill: none; stroke: #191919; stroke-width: 1.6"/>
   </g>
   <g id="line2d_13">
    <path d="M 192.216937 249.515099 
L 213.818062 249.515099 
" clip-path="url(#p13eb2e0cd1)" style="fill: none; stroke: #191919; stroke-width: 1.6; stroke-linecap: round"/>
   </g>
   <g id="line2d_14">
    <path d="M 192.216937 101.778369 
L 213.818062 101.778369 
" clip-path="url(#p13eb2e0cd1)" style="fill: none; stroke: #191919; stroke-width: 1.6; stroke-linecap: round"/>
   </g>
   <g id="line2d_15">
    <g clip-path="url(#p13eb2e0cd1)">
     <use xlink:href="#m99672673e1" x="203.0175" y="91.029335" style="fill-opacity: 0; stroke: #191919"/>
    </g>
   </g>
   <g id="patch_5">
    <path d="M 277.421375 223.267457 
L 320.623625 223.267457 
L 320.623625 186.145791 
L 277.421375 186.145791 
L 277.421375 223.267457 
z
" clip-path="url(#p13eb2e0cd1)" style="fill: #e2d240; stroke: #191919; stroke-width: 1.6; stroke-linejoin: miter"/>
   </g>
   <g id="line2d_16">
    <path d="M 299.0225 223.267457 
L 299.0225 244.015593 
" clip-path="url(#p13eb2e0cd1)" style="fill: none; stroke: #191919; stroke-width: 1.6"/>
   </g>
   <g id="line2d_17">
    <path d="M 299.0225 186.145791 
L 299.0225 130.775765 
" clip-path="url(#p13eb2e0cd1)" style="fill: none; stroke: #191919; stroke-width: 1.6"/>
   </g>
   <g id="line2d_18">
    <path d="M 288.221937 244.015593 
L 309.823062 244.015593 
" clip-path="url(#p13eb2e0cd1)" style="fill: none; stroke: #191919; stroke-width: 1.6; stroke-linecap: round"/>
   </g>
   <g id="line2d_19">
    <path d="M 288.221937 130.775765 
L 309.823062 130.775765 
" clip-path="url(#p13eb2e0cd1)" style="fill: none; stroke: #191919; stroke-width: 1.6; stroke-linecap: round"/>
   </g>
   <g id="line2d_20">
    <g clip-path="url(#p13eb2e0cd1)">
     <use xlink:href="#m99672673e1" x="299.0225" y="113.527314" style="fill-opacity: 0; stroke: #191919"/>
     <use xlink:href="#m99672673e1" x="299.0225" y="116.277067" style="fill-opacity: 0; stroke: #191919"/>
     <use xlink:href="#m99672673e1" x="299.0225" y="96.278863" style="fill-opacity: 0; stroke: #191919"/>
     <use xlink:href="#m99672673e1" x="299.0225" y="122.276528" style="fill-opacity: 0; stroke: #191919"/>
     <use xlink:href="#m99672673e1" x="299.0225" y="110.777561" style="fill-opacity: 0; stroke: #191919"/>
     <use xlink:href="#m99672673e1" x="299.0225" y="129.775855" style="fill-opacity: 0; stroke: #191919"/>
     <use xlink:href="#m99672673e1" x="299.0225" y="130.27581" style="fill-opacity: 0; stroke: #191919"/>
     <use xlink:href="#m99672673e1" x="299.0225" y="120.776663" style="fill-opacity: 0; stroke: #191919"/>
     <use xlink:href="#m99672673e1" x="299.0225" y="100.528482" style="fill-opacity: 0; stroke: #191919"/>
     <use xlink:href="#m99672673e1" x="299.0225" y="114.277247" style="fill-opacity: 0; stroke: #191919"/>
     <use xlink:href="#m99672673e1" x="299.0225" y="108.527763" style="fill-opacity: 0; stroke: #191919"/>
     <use xlink:href="#m99672673e1" x="299.0225" y="119.526775" style="fill-opacity: 0; stroke: #191919"/>
    </g>
   </g>
   <g id="patch_6">
    <path d="M 373.426375 225.329772 
L 416.628625 225.329772 
L 416.628625 181.833679 
L 373.426375 181.833679 
L 373.426375 225.329772 
z
" clip-path="url(#p13eb2e0cd1)" style="fill: #33977c; stroke: #191919; stroke-width: 1.6; stroke-linejoin: miter"/>
   </g>
   <g id="line2d_21">
    <path d="M 395.0275 225.329772 
L 395.0275 250.015054 
" clip-path="url(#p13eb2e0cd1)" style="fill: none; stroke: #191919; stroke-width: 1.6"/>
   </g>
   <g id="line2d_22">
    <path d="M 395.0275 181.833679 
L 395.0275 123.276438 
" clip-path="url(#p13eb2e0cd1)" style="fill: none; stroke: #191919; stroke-width: 1.6"/>
   </g>
   <g id="line2d_23">
    <path d="M 384.226938 250.015054 
L 405.828062 250.015054 
" clip-path="url(#p13eb2e0cd1)" style="fill: none; stroke: #191919; stroke-width: 1.6; stroke-linecap: round"/>
   </g>
   <g id="line2d_24">
    <path d="M 384.226938 123.276438 
L 405.828062 123.276438 
" clip-path="url(#p13eb2e0cd1)" style="fill: none; stroke: #191919; stroke-width: 1.6; stroke-linecap: round"/>
   </g>
   <g id="line2d_25">
    <g clip-path="url(#p13eb2e0cd1)">
     <use xlink:href="#m99672673e1" x="395.0275" y="38.53405" style="fill-opacity: 0; stroke: #191919"/>
    </g>
   </g>
   <g id="patch_7">
    <path d="M 469.431375 222.017569 
L 512.633625 222.017569 
L 512.633625 180.771274 
L 469.431375 180.771274 
L 469.431375 222.017569 
z
" clip-path="url(#p13eb2e0cd1)" style="fill: #35707a; stroke: #191919; stroke-width: 1.6; stroke-linejoin: miter"/>
   </g>
   <g id="line2d_26">
    <path d="M 491.0325 222.017569 
L 491.0325 247.015324 
" clip-path="url(#p13eb2e0cd1)" style="fill: none; stroke: #191919; stroke-width: 1.6"/>
   </g>
   <g id="line2d_27">
    <path d="M 491.0325 180.771274 
L 491.0325 123.776393 
" clip-path="url(#p13eb2e0cd1)" style="fill: none; stroke: #191919; stroke-width: 1.6"/>
   </g>
   <g id="line2d_28">
    <path d="M 480.231938 247.015324 
L 501.833062 247.015324 
" clip-path="url(#p13eb2e0cd1)" style="fill: none; stroke: #191919; stroke-width: 1.6; stroke-linecap: round"/>
   </g>
   <g id="line2d_29">
    <path d="M 480.231938 123.776393 
L 501.833062 123.776393 
" clip-path="url(#p13eb2e0cd1)" style="fill: none; stroke: #191919; stroke-width: 1.6; stroke-linecap: round"/>
   </g>
   <g id="line2d_30">
    <g clip-path="url(#p13eb2e0cd1)">
     <use xlink:href="#m99672673e1" x="491.0325" y="108.777741" style="fill-opacity: 0; stroke: #191919"/>
     <use xlink:href="#m99672673e1" x="491.0325" y="99.778549" style="fill-opacity: 0; stroke: #191919"/>
    </g>
   </g>
   <g id="patch_8">
    <path d="M 565.436375 216.268086 
L 608.638625 216.268086 
L 608.638625 172.02206 
L 565.436375 172.02206 
L 565.436375 216.268086 
z
" clip-path="url(#p13eb2e0cd1)" style="fill: #3e0b4a; stroke: #191919; stroke-width: 1.6; stroke-linejoin: miter"/>
   </g>
   <g id="line2d_31">
    <path d="M 587.0375 216.268086 
L 587.0375 244.515548 
" clip-path="url(#p13eb2e0cd1)" style="fill: none; stroke: #191919; stroke-width: 1.6"/>
   </g>
   <g id="line2d_32">
    <path d="M 587.0375 172.02206 
L 587.0375 109.027718 
" clip-path="url(#p13eb2e0cd1)" style="fill: none; stroke: #191919; stroke-width: 1.6"/>
   </g>
   <g id="line2d_33">
    <path d="M 576.236938 244.515548 
L 597.838062 244.515548 
" clip-path="url(#p13eb2e0cd1)" style="fill: none; stroke: #191919; stroke-width: 1.6; stroke-linecap: round"/>
   </g>
   <g id="line2d_34">
    <path d="M 576.236938 109.027718 
L 597.838062 109.027718 
" clip-path="url(#p13eb2e0cd1)" style="fill: none; stroke: #191919; stroke-width: 1.6; stroke-linecap: round"/>
   </g>
   <g id="line2d_35">
    <g clip-path="url(#p13eb2e0cd1)">
     <use xlink:href="#m99672673e1" x="587.0375" y="68.781333" style="fill-opacity: 0; stroke: #191919"/>
     <use xlink:href="#m99672673e1" x="587.0375" y="88.529559" style="fill-opacity: 0; stroke: #191919"/>
     <use xlink:href="#m99672673e1" x="587.0375" y="83.030053" style="fill-opacity: 0; stroke: #191919"/>
    </g>
   </g>
   <g id="line2d_36">
    <path d="M 85.411375 200.769478 
L 128.613625 200.769478 
" clip-path="url(#p13eb2e0cd1)" style="fill: none; stroke: #191919; stroke-width: 1.6"/>
   </g>
   <g id="line2d_37">
    <path d="M 181.416375 197.144803 
L 224.618625 197.144803 
" clip-path="url(#p13eb2e0cd1)" style="fill: none; stroke: #191919; stroke-width: 1.6"/>
   </g>
   <g id="line2d_38">
    <path d="M 277.421375 212.018467 
L 320.623625 212.018467 
" clip-path="url(#p13eb2e0cd1)" style="fill: none; stroke: #191919; stroke-width: 1.6"/>
   </g>
   <g id="line2d_39">
    <path d="M 373.426375 206.019006 
L 416.628625 206.019006 
" clip-path="url(#p13eb2e0cd1)" style="fill: none; stroke: #191919; stroke-width: 1.6"/>
   </g>
   <g id="line2d_40">
    <path d="M 469.431375 199.269612 
L 512.633625 199.269612 
" clip-path="url(#p13eb2e0cd1)" style="fill: none; stroke: #191919; stroke-width: 1.6"/>
   </g>
   <g id="line2d_41">
    <path d="M 565.436375 190.020443 
L 608.638625 190.020443 
" clip-path="url(#p13eb2e0cd1)" style="fill: none; stroke: #191919; stroke-width: 1.6"/>
   </g>
   <g id="patch_9">
    <path d="M 59.01 260.589105 
L 59.01 27.96 
" style="fill: none; stroke: #cccccc; stroke-width: 1.25; stroke-linejoin: miter; stroke-linecap: square"/>
   </g>
   <g id="patch_10">
    <path d="M 635.04 260.589105 
L 635.04 27.96 
" style="fill: none; stroke: #cccccc; stroke-width: 1.25; stroke-linejoin: miter; stroke-linecap: square"/>
   </g>
   <g id="patch_11">
    <path d="M 59.01 260.589105 
L 635.04 260.589105 
" style="fill: none; stroke: #cccccc; stroke-width: 1.25; stroke-linejoin: miter; stroke-linecap: square"/>
   </g>
   <g id="patch_12">
    <path d="M 59.01 27.96 
L 635.04 27.96 
" style="fill: none; stroke: #cccccc; stroke-width: 1.25; stroke-linejoin: miter; stroke-linecap: square"/>
   </g>
   <g id="text_13">
    <!-- Width -->
    <g style="fill: #262626" transform="translate(329.596875 21.96) scale(0.12 -0.12)">
     <defs>
      <path id="DejaVuSans-57" d="M 213 4666 
L 850 4666 
L 1831 722 
L 2809 4666 
L 3519 4666 
L 4500 722 
L 5478 4666 
L 6119 4666 
L 4947 0 
L 4153 0 
L 3169 4050 
L 2175 0 
L 1381 0 
L 213 4666 
z
" transform="scale(0.015625)"/>
      <path id="DejaVuSans-68" d="M 3513 2113 
L 3513 0 
L 2938 0 
L 2938 2094 
Q 2938 2591 2744 2837 
Q 2550 3084 2163 3084 
Q 1697 3084 1428 2787 
Q 1159 2491 1159 1978 
L 1159 0 
L 581 0 
L 581 4863 
L 1159 4863 
L 1159 2956 
Q 1366 3272 1645 3428 
Q 1925 3584 2291 3584 
Q 2894 3584 3203 3211 
Q 3513 2838 3513 2113 
z
" transform="scale(0.015625)"/>
     </defs>
     <use xlink:href="#DejaVuSans-57"/>
     <use xlink:href="#DejaVuSans-69" x="96.626953"/>
     <use xlink:href="#DejaVuSans-64" x="124.410156"/>
     <use xlink:href="#DejaVuSans-74" x="187.886719"/>
     <use xlink:href="#DejaVuSans-68" x="227.095703"/>
    </g>
   </g>
  </g>
 </g>
 <defs>
  <clipPath id="p13eb2e0cd1">
   <rect x="59.01" y="27.96" width="576.03" height="232.629105"/>
  </clipPath>
 </defs>
</svg>
