<?xml version="1.0" encoding="utf-8" standalone="no"?>
<!DOCTYPE svg PUBLIC "-//W3C//DTD SVG 1.1//EN"
  "http://www.w3.org/Graphics/SVG/1.1/DTD/svg11.dtd">
<svg xmlns:xlink="http://www.w3.org/1999/xlink" width="1230.754375pt" height="385.92pt" viewBox="0 0 1230.754375 385.92" xmlns="http://www.w3.org/2000/svg" version="1.1">
 <metadata>
  <rdf:RDF xmlns:dc="http://purl.org/dc/elements/1.1/" xmlns:cc="http://creativecommons.org/ns#" xmlns:rdf="http://www.w3.org/1999/02/22-rdf-syntax-ns#">
   <cc:Work>
    <dc:type rdf:resource="http://purl.org/dc/dcmitype/StillImage"/>
    <dc:date>2025-08-30T20:04:57.142873</dc:date>
    <dc:format>image/svg+xml</dc:format>
    <dc:creator>
     <cc:Agent>
      <dc:title>Matplotlib v3.8.4, https://matplotlib.org/</dc:title>
     </cc:Agent>
    </dc:creator>
   </cc:Work>
  </rdf:RDF>
 </metadata>
 <defs>
  <style type="text/css">*{stroke-linejoin: round; stroke-linecap: butt}</style>
 </defs>
 <g id="figure_1">
  <g id="patch_1">
   <path d="M 0 385.92 
L 1230.754375 385.92 
L 1230.754375 0 
L 0 0 
z
" style="fill: #ffffff"/>
  </g>
  <g id="axes_1">
   <g id="patch_2">
    <path d="M 57.154375 378.72 
L 405.55957 378.72 
L 405.55957 50.4 
L 57.154375 50.4 
z
" style="fill: #ffffff"/>
   </g>
   <g id="matplotlib.axis_1">
    <g id="xtick_1"/>
   </g>
   <g id="matplotlib.axis_2">
    <g id="ytick_1">
     <g id="line2d_1">
      <path d="M 57.154375 345.174649 
L 405.55957 345.174649 
" clip-path="url(#p583387ba11)" style="fill: none; stroke: #cccccc; stroke-linecap: round"/>
     </g>
     <g id="text_1">
      <!-- 0 -->
      <g style="fill: #262626" transform="translate(40.019375 349.733712) scale(0.12 -0.12)">
       <defs>
        <path id="DejaVuSans-30" d="M 2034 4250 
Q 1547 4250 1301 3770 
Q 1056 3291 1056 2328 
Q 1056 1369 1301 889 
Q 1547 409 2034 409 
Q 2525 409 2770 889 
Q 3016 1369 3016 2328 
Q 3016 3291 2770 3770 
Q 2525 4250 2034 4250 
z
M 2034 4750 
Q 2819 4750 3233 4129 
Q 3647 3509 3647 2328 
Q 3647 1150 3233 529 
Q 2819 -91 2034 -91 
Q 1250 -91 836 529 
Q 422 1150 422 2328 
Q 422 3509 836 4129 
Q 1250 4750 2034 4750 
z
" transform="scale(0.015625)"/>
       </defs>
       <use xlink:href="#DejaVuSans-30"/>
      </g>
     </g>
    </g>
    <g id="ytick_2">
     <g id="line2d_2">
      <path d="M 57.154375 304.653155 
L 405.55957 304.653155 
" clip-path="url(#p583387ba11)" style="fill: none; stroke: #cccccc; stroke-linecap: round"/>
     </g>
     <g id="text_2">
      <!-- 50 -->
      <g style="fill: #262626" transform="translate(32.384375 309.212218) scale(0.12 -0.12)">
       <defs>
        <path id="DejaVuSans-35" d="M 691 4666 
L 3169 4666 
L 3169 4134 
L 1269 4134 
L 1269 2991 
Q 1406 3038 1543 3061 
Q 1681 3084 1819 3084 
Q 2600 3084 3056 2656 
Q 3513 2228 3513 1497 
Q 3513 744 3044 326 
Q 2575 -91 1722 -91 
Q 1428 -91 1123 -41 
Q 819 9 494 109 
L 494 744 
Q 775 591 1075 516 
Q 1375 441 1709 441 
Q 2250 441 2565 725 
Q 2881 1009 2881 1497 
Q 2881 1984 2565 2268 
Q 2250 2553 1709 2553 
Q 1456 2553 1204 2497 
Q 953 2441 691 2322 
L 691 4666 
z
" transform="scale(0.015625)"/>
       </defs>
       <use xlink:href="#DejaVuSans-35"/>
       <use xlink:href="#DejaVuSans-30" x="63.623047"/>
      </g>
     </g>
    </g>
    <g id="ytick_3">
     <g id="line2d_3">
      <path d="M 57.154375 264.131662 
L 405.55957 264.131662 
" clip-path="url(#p583387ba11)" style="fill: none; stroke: #cccccc; stroke-linecap: round"/>
     </g>
     <g id="text_3">
      <!-- 100 -->
      <g style="fill: #262626" transform="translate(24.749375 268.690724) scale(0.12 -0.12)">
       <defs>
        <path id="DejaVuSans-31" d="M 794 531 
L 1825 531 
L 1825 4091 
L 703 3866 
L 703 4441 
L 1819 4666 
L 2450 4666 
L 2450 531 
L 3481 531 
L 3481 0 
L 794 0 
L 794 531 
z
" transform="scale(0.015625)"/>
       </defs>
       <use xlink:href="#DejaVuSans-31"/>
       <use xlink:href="#DejaVuSans-30" x="63.623047"/>
       <use xlink:href="#DejaVuSans-30" x="127.246094"/>
      </g>
     </g>
    </g>
    <g id="ytick_4">
     <g id="line2d_4">
      <path d="M 57.154375 223.610168 
L 405.55957 223.610168 
" clip-path="url(#p583387ba11)" style="fill: none; stroke: #cccccc; stroke-linecap: round"/>
     </g>
     <g id="text_4">
      <!-- 150 -->
      <g style="fill: #262626" transform="translate(24.749375 228.16923) scale(0.12 -0.12)">
       <use xlink:href="#DejaVuSans-31"/>
       <use xlink:href="#DejaVuSans-35" x="63.623047"/>
       <use xlink:href="#DejaVuSans-30" x="127.246094"/>
      </g>
     </g>
    </g>
    <g id="ytick_5">
     <g id="line2d_5">
      <path d="M 57.154375 183.088674 
L 405.55957 183.088674 
" clip-path="url(#p583387ba11)" style="fill: none; stroke: #cccccc; stroke-linecap: round"/>
     </g>
     <g id="text_5">
      <!-- 200 -->
      <g style="fill: #262626" transform="translate(24.749375 187.647736) scale(0.12 -0.12)">
       <defs>
        <path id="DejaVuSans-32" d="M 1228 531 
L 3431 531 
L 3431 0 
L 469 0 
L 469 531 
Q 828 903 1448 1529 
Q 2069 2156 2228 2338 
Q 2531 2678 2651 2914 
Q 2772 3150 2772 3378 
Q 2772 3750 2511 3984 
Q 2250 4219 1831 4219 
Q 1534 4219 1204 4116 
Q 875 4013 500 3803 
L 500 4441 
Q 881 4594 1212 4672 
Q 1544 4750 1819 4750 
Q 2544 4750 2975 4387 
Q 3406 4025 3406 3419 
Q 3406 3131 3298 2873 
Q 3191 2616 2906 2266 
Q 2828 2175 2409 1742 
Q 1991 1309 1228 531 
z
" transform="scale(0.015625)"/>
       </defs>
       <use xlink:href="#DejaVuSans-32"/>
       <use xlink:href="#DejaVuSans-30" x="63.623047"/>
       <use xlink:href="#DejaVuSans-30" x="127.246094"/>
      </g>
     </g>
    </g>
    <g id="ytick_6">
     <g id="line2d_6">
      <path d="M 57.154375 142.56718 
L 405.55957 142.56718 
" clip-path="url(#p583387ba11)" style="fill: none; stroke: #cccccc; stroke-linecap: round"/>
     </g>
     <g id="text_6">
      <!-- 250 -->
      <g style="fill: #262626" transform="translate(24.749375 147.126243) scale(0.12 -0.12)">
       <use xlink:href="#DejaVuSans-32"/>
       <use xlink:href="#DejaVuSans-35" x="63.623047"/>
       <use xlink:href="#DejaVuSans-30" x="127.246094"/>
      </g>
     </g>
    </g>
    <g id="ytick_7">
     <g id="line2d_7">
      <path d="M 57.154375 102.045686 
L 405.55957 102.045686 
" clip-path="url(#p583387ba11)" style="fill: none; stroke: #cccccc; stroke-linecap: round"/>
     </g>
     <g id="text_7">
      <!-- 300 -->
      <g style="fill: #262626" transform="translate(24.749375 106.604749) scale(0.12 -0.12)">
       <defs>
        <path id="DejaVuSans-33" d="M 2597 2516 
Q 3050 2419 3304 2112 
Q 3559 1806 3559 1356 
Q 3559 666 3084 287 
Q 2609 -91 1734 -91 
Q 1441 -91 1130 -33 
Q 819 25 488 141 
L 488 750 
Q 750 597 1062 519 
Q 1375 441 1716 441 
Q 2309 441 2620 675 
Q 2931 909 2931 1356 
Q 2931 1769 2642 2001 
Q 2353 2234 1838 2234 
L 1294 2234 
L 1294 2753 
L 1863 2753 
Q 2328 2753 2575 2939 
Q 2822 3125 2822 3475 
Q 2822 3834 2567 4026 
Q 2313 4219 1838 4219 
Q 1578 4219 1281 4162 
Q 984 4106 628 3988 
L 628 4550 
Q 988 4650 1302 4700 
Q 1616 4750 1894 4750 
Q 2613 4750 3031 4423 
Q 3450 4097 3450 3541 
Q 3450 3153 3228 2886 
Q 3006 2619 2597 2516 
z
" transform="scale(0.015625)"/>
       </defs>
       <use xlink:href="#DejaVuSans-33"/>
       <use xlink:href="#DejaVuSans-30" x="63.623047"/>
       <use xlink:href="#DejaVuSans-30" x="127.246094"/>
      </g>
     </g>
    </g>
    <g id="ytick_8">
     <g id="line2d_8">
      <path d="M 57.154375 61.524193 
L 405.55957 61.524193 
" clip-path="url(#p583387ba11)" style="fill: none; stroke: #cccccc; stroke-linecap: round"/>
     </g>
     <g id="text_8">
      <!-- 350 -->
      <g style="fill: #262626" transform="translate(24.749375 66.083255) scale(0.12 -0.12)">
       <use xlink:href="#DejaVuSans-33"/>
       <use xlink:href="#DejaVuSans-35" x="63.623047"/>
       <use xlink:href="#DejaVuSans-30" x="127.246094"/>
      </g>
     </g>
    </g>
    <g id="text_9">
     <!-- Pixels -->
     <g style="fill: #262626" transform="translate(17.837813 234.390781) rotate(-90) scale(0.14 -0.14)">
      <defs>
       <path id="DejaVuSans-50" d="M 1259 4147 
L 1259 2394 
L 2053 2394 
Q 2494 2394 2734 2622 
Q 2975 2850 2975 3272 
Q 2975 3691 2734 3919 
Q 2494 4147 2053 4147 
L 1259 4147 
z
M 628 4666 
L 2053 4666 
Q 2838 4666 3239 4311 
Q 3641 3956 3641 3272 
Q 3641 2581 3239 2228 
Q 2838 1875 2053 1875 
L 1259 1875 
L 1259 0 
L 628 0 
L 628 4666 
z
" transform="scale(0.015625)"/>
       <path id="DejaVuSans-69" d="M 603 3500 
L 1178 3500 
L 1178 0 
L 603 0 
L 603 3500 
z
M 603 4863 
L 1178 4863 
L 1178 4134 
L 603 4134 
L 603 4863 
z
" transform="scale(0.015625)"/>
       <path id="DejaVuSans-78" d="M 3513 3500 
L 2247 1797 
L 3578 0 
L 2900 0 
L 1881 1375 
L 863 0 
L 184 0 
L 1544 1831 
L 300 3500 
L 978 3500 
L 1906 2253 
L 2834 3500 
L 3513 3500 
z
" transform="scale(0.015625)"/>
       <path id="DejaVuSans-65" d="M 3597 1894 
L 3597 1613 
L 953 1613 
Q 991 1019 1311 708 
Q 1631 397 2203 397 
Q 2534 397 2845 478 
Q 3156 559 3463 722 
L 3463 178 
Q 3153 47 2828 -22 
Q 2503 -91 2169 -91 
Q 1331 -91 842 396 
Q 353 884 353 1716 
Q 353 2575 817 3079 
Q 1281 3584 2069 3584 
Q 2775 3584 3186 3129 
Q 3597 2675 3597 1894 
z
M 3022 2063 
Q 3016 2534 2758 2815 
Q 2500 3097 2075 3097 
Q 1594 3097 1305 2825 
Q 1016 2553 972 2059 
L 3022 2063 
z
" transform="scale(0.015625)"/>
       <path id="DejaVuSans-6c" d="M 603 4863 
L 1178 4863 
L 1178 0 
L 603 0 
L 603 4863 
z
" transform="scale(0.015625)"/>
       <path id="DejaVuSans-73" d="M 2834 3397 
L 2834 2853 
Q 2591 2978 2328 3040 
Q 2066 3103 1784 3103 
Q 1356 3103 1142 2972 
Q 928 2841 928 2578 
Q 928 2378 1081 2264 
Q 1234 2150 1697 2047 
L 1894 2003 
Q 2506 1872 2764 1633 
Q 3022 1394 3022 966 
Q 3022 478 2636 193 
Q 2250 -91 1575 -91 
Q 1294 -91 989 -36 
Q 684 19 347 128 
L 347 722 
Q 666 556 975 473 
Q 1284 391 1588 391 
Q 1994 391 2212 530 
Q 2431 669 2431 922 
Q 2431 1156 2273 1281 
Q 2116 1406 1581 1522 
L 1381 1569 
Q 847 1681 609 1914 
Q 372 2147 372 2553 
Q 372 3047 722 3315 
Q 1072 3584 1716 3584 
Q 2034 3584 2315 3537 
Q 2597 3491 2834 3397 
z
" transform="scale(0.015625)"/>
      </defs>
      <use xlink:href="#DejaVuSans-50"/>
      <use xlink:href="#DejaVuSans-69" x="58.052734"/>
      <use xlink:href="#DejaVuSans-78" x="85.835938"/>
      <use xlink:href="#DejaVuSans-65" x="141.890625"/>
      <use xlink:href="#DejaVuSans-6c" x="203.414062"/>
      <use xlink:href="#DejaVuSans-73" x="231.197266"/>
     </g>
    </g>
   </g>
   <g id="PolyCollection_1">
    <defs>
     <path id="md90aaa1b0b" d="M 231.905187 -22.123636 
L 230.808758 -22.123636 
L 230.241212 -25.138512 
L 229.232816 -28.153388 
L 227.56406 -31.168264 
L 224.985157 -34.18314 
L 221.251409 -37.198017 
L 216.167812 -40.212893 
L 209.630457 -43.227769 
L 201.652812 -46.242645 
L 192.371589 -49.257521 
L 182.034931 -52.272397 
L 170.979062 -55.287273 
L 159.596909 -58.302149 
L 148.298996 -61.317025 
L 137.469342 -64.331901 
L 127.426616 -67.346777 
L 118.404675 -70.361653 
L 110.559728 -73.376529 
L 103.996927 -76.391405 
L 98.798486 -79.406281 
L 95.036589 -82.421157 
L 92.764886 -85.436033 
L 91.994894 -88.450909 
L 92.672761 -91.465785 
L 94.674473 -94.480661 
L 97.829839 -97.495537 
L 101.96682 -100.510413 
L 106.949083 -103.525289 
L 112.678439 -106.540165 
L 119.056144 -109.555041 
L 125.927218 -112.569917 
L 133.046108 -115.584793 
L 140.09111 -118.599669 
L 146.729355 -121.614545 
L 152.709476 -124.629421 
L 157.94296 -127.644298 
L 162.532172 -130.659174 
L 166.719634 -133.67405 
L 170.770957 -136.688926 
L 174.845739 -139.703802 
L 178.926364 -142.718678 
L 182.846114 -145.733554 
L 186.400054 -148.74843 
L 189.473497 -151.763306 
L 192.115262 -154.778182 
L 194.518743 -157.793058 
L 196.927602 -160.807934 
L 199.522145 -163.82281 
L 202.346828 -166.837686 
L 205.310434 -169.852562 
L 208.247712 -172.867438 
L 211.000506 -175.882314 
L 213.473982 -178.89719 
L 215.64703 -181.912066 
L 217.546859 -184.926942 
L 219.215358 -187.941818 
L 220.690166 -190.956694 
L 222.00458 -193.97157 
L 223.194222 -196.986446 
L 224.296353 -200.001322 
L 225.338325 -203.016198 
L 226.32363 -206.031074 
L 227.227258 -209.04595 
L 228.005698 -212.060826 
L 228.617288 -215.075702 
L 229.042755 -218.090579 
L 229.296233 -221.105455 
L 229.422148 -224.120331 
L 229.480016 -227.135207 
L 229.524729 -230.150083 
L 229.59158 -233.164959 
L 229.692189 -236.179835 
L 229.820808 -239.194711 
L 229.964731 -242.209587 
L 230.111411 -245.224463 
L 230.249217 -248.239339 
L 230.36457 -251.254215 
L 230.440916 -254.269091 
L 230.462813 -257.283967 
L 230.42358 -260.298843 
L 230.331618 -263.313719 
L 230.210975 -266.328595 
L 230.095086 -269.343471 
L 230.016266 -272.358347 
L 229.995313 -275.373223 
L 230.035125 -278.388099 
L 230.120559 -281.402975 
L 230.224753 -284.417851 
L 230.319917 -287.432727 
L 230.388578 -290.447603 
L 230.430363 -293.462479 
L 230.460848 -296.477355 
L 230.502847 -299.492231 
L 230.574646 -302.507107 
L 230.68138 -305.521983 
L 230.813638 -308.53686 
L 230.95298 -311.551736 
L 231.080396 -314.566612 
L 231.18303 -317.581488 
L 231.256603 -320.596364 
L 231.457342 -320.596364 
L 231.457342 -320.596364 
L 231.530915 -317.581488 
L 231.633549 -314.566612 
L 231.760965 -311.551736 
L 231.900307 -308.53686 
L 232.032565 -305.521983 
L 232.139299 -302.507107 
L 232.211098 -299.492231 
L 232.253097 -296.477355 
L 232.283582 -293.462479 
L 232.325367 -290.447603 
L 232.394028 -287.432727 
L 232.489191 -284.417851 
L 232.593386 -281.402975 
L 232.67882 -278.388099 
L 232.718631 -275.373223 
L 232.697679 -272.358347 
L 232.618859 -269.343471 
L 232.50297 -266.328595 
L 232.382327 -263.313719 
L 232.290365 -260.298843 
L 232.251131 -257.283967 
L 232.273029 -254.269091 
L 232.349375 -251.254215 
L 232.464727 -248.239339 
L 232.602534 -245.224463 
L 232.749213 -242.209587 
L 232.893136 -239.194711 
L 233.021756 -236.179835 
L 233.122364 -233.164959 
L 233.189216 -230.150083 
L 233.233928 -227.135207 
L 233.291797 -224.120331 
L 233.417711 -221.105455 
L 233.67119 -218.090579 
L 234.096656 -215.075702 
L 234.708247 -212.060826 
L 235.486687 -209.04595 
L 236.390315 -206.031074 
L 237.37562 -203.016198 
L 238.417592 -200.001322 
L 239.519722 -196.986446 
L 240.709365 -193.97157 
L 242.023779 -190.956694 
L 243.498587 -187.941818 
L 245.167086 -184.926942 
L 247.066915 -181.912066 
L 249.239963 -178.89719 
L 251.713439 -175.882314 
L 254.466233 -172.867438 
L 257.403511 -169.852562 
L 260.367117 -166.837686 
L 263.1918 -163.82281 
L 265.786342 -160.807934 
L 268.195202 -157.793058 
L 270.598683 -154.778182 
L 273.240448 -151.763306 
L 276.313891 -148.74843 
L 279.867831 -145.733554 
L 283.787581 -142.718678 
L 287.868206 -139.703802 
L 291.942988 -136.688926 
L 295.994311 -133.67405 
L 300.181772 -130.659174 
L 304.770985 -127.644298 
L 310.004469 -124.629421 
L 315.98459 -121.614545 
L 322.622835 -118.599669 
L 329.667836 -115.584793 
L 336.786727 -112.569917 
L 343.657801 -109.555041 
L 350.035506 -106.540165 
L 355.764862 -103.525289 
L 360.747125 -100.510413 
L 364.884106 -97.495537 
L 368.039472 -94.480661 
L 370.041184 -91.465785 
L 370.71905 -88.450909 
L 369.949059 -85.436033 
L 367.677355 -82.421157 
L 363.915459 -79.406281 
L 358.717018 -76.391405 
L 352.154217 -73.376529 
L 344.30927 -70.361653 
L 335.287328 -67.346777 
L 325.244603 -64.331901 
L 314.414949 -61.317025 
L 303.117036 -58.302149 
L 291.734883 -55.287273 
L 280.679014 -52.272397 
L 270.342356 -49.257521 
L 261.061133 -46.242645 
L 253.083488 -43.227769 
L 246.546133 -40.212893 
L 241.462536 -37.198017 
L 237.728788 -34.18314 
L 235.149885 -31.168264 
L 233.481129 -28.153388 
L 232.472733 -25.138512 
L 231.905187 -22.123636 
z
" style="stroke: #656565; stroke-width: 1.25"/>
    </defs>
    <g clip-path="url(#p583387ba11)">
     <use xlink:href="#md90aaa1b0b" x="0" y="385.92" style="fill: #a9a9a9; stroke: #656565; stroke-width: 1.25"/>
    </g>
   </g>
   <g id="line2d_9">
    <path d="M 100.792719 307.67029 
L 361.921226 307.67029 
" clip-path="url(#p583387ba11)" style="fill: none; stroke-dasharray: 1.5625,0.9375; stroke-dashoffset: 0; stroke: #656565; stroke-width: 1.25"/>
   </g>
   <g id="line2d_10">
    <path d="M 97.548127 288.693632 
L 365.165818 288.693632 
" clip-path="url(#p583387ba11)" style="fill: none; stroke-dasharray: 3.125,1.25; stroke-dashoffset: 0; stroke: #656565; stroke-width: 1.25"/>
   </g>
   <g id="line2d_11">
    <path d="M 148.796988 263.263058 
L 313.916957 263.263058 
" clip-path="url(#p583387ba11)" style="fill: none; stroke-dasharray: 1.5625,0.9375; stroke-dashoffset: 0; stroke: #656565; stroke-width: 1.25"/>
   </g>
   <g id="line2d_12">
    <path d="M 57.154375 345.174649 
L 405.55957 345.174649 
" clip-path="url(#p583387ba11)" style="fill: none; stroke-dasharray: 7.4,3.2; stroke-dashoffset: 0; stroke: #ff0000; stroke-width: 2"/>
   </g>
   <g id="patch_3">
    <path d="M 57.154375 378.72 
L 57.154375 50.4 
" style="fill: none; stroke: #cccccc; stroke-width: 1.25; stroke-linejoin: miter; stroke-linecap: square"/>
   </g>
   <g id="patch_4">
    <path d="M 405.55957 378.72 
L 405.55957 50.4 
" style="fill: none; stroke: #cccccc; stroke-width: 1.25; stroke-linejoin: miter; stroke-linecap: square"/>
   </g>
   <g id="patch_5">
    <path d="M 57.154375 378.72 
L 405.55957 378.72 
" style="fill: none; stroke: #cccccc; stroke-width: 1.25; stroke-linejoin: miter; stroke-linecap: square"/>
   </g>
   <g id="patch_6">
    <path d="M 57.154375 50.4 
L 405.55957 50.4 
" style="fill: none; stroke: #cccccc; stroke-width: 1.25; stroke-linejoin: miter; stroke-linecap: square"/>
   </g>
   <g id="text_10">
    <!-- Distance from Center -->
    <g style="fill: #262626" transform="translate(151.103457 44.4) scale(0.15 -0.15)">
     <defs>
      <path id="DejaVuSans-44" d="M 1259 4147 
L 1259 519 
L 2022 519 
Q 2988 519 3436 956 
Q 3884 1394 3884 2338 
Q 3884 3275 3436 3711 
Q 2988 4147 2022 4147 
L 1259 4147 
z
M 628 4666 
L 1925 4666 
Q 3281 4666 3915 4102 
Q 4550 3538 4550 2338 
Q 4550 1131 3912 565 
Q 3275 0 1925 0 
L 628 0 
L 628 4666 
z
" transform="scale(0.015625)"/>
      <path id="DejaVuSans-74" d="M 1172 4494 
L 1172 3500 
L 2356 3500 
L 2356 3053 
L 1172 3053 
L 1172 1153 
Q 1172 725 1289 603 
Q 1406 481 1766 481 
L 2356 481 
L 2356 0 
L 1766 0 
Q 1100 0 847 248 
Q 594 497 594 1153 
L 594 3053 
L 172 3053 
L 172 3500 
L 594 3500 
L 594 4494 
L 1172 4494 
z
" transform="scale(0.015625)"/>
      <path id="DejaVuSans-61" d="M 2194 1759 
Q 1497 1759 1228 1600 
Q 959 1441 959 1056 
Q 959 750 1161 570 
Q 1363 391 1709 391 
Q 2188 391 2477 730 
Q 2766 1069 2766 1631 
L 2766 1759 
L 2194 1759 
z
M 3341 1997 
L 3341 0 
L 2766 0 
L 2766 531 
Q 2569 213 2275 61 
Q 1981 -91 1556 -91 
Q 1019 -91 701 211 
Q 384 513 384 1019 
Q 384 1609 779 1909 
Q 1175 2209 1959 2209 
L 2766 2209 
L 2766 2266 
Q 2766 2663 2505 2880 
Q 2244 3097 1772 3097 
Q 1472 3097 1187 3025 
Q 903 2953 641 2809 
L 641 3341 
Q 956 3463 1253 3523 
Q 1550 3584 1831 3584 
Q 2591 3584 2966 3190 
Q 3341 2797 3341 1997 
z
" transform="scale(0.015625)"/>
      <path id="DejaVuSans-6e" d="M 3513 2113 
L 3513 0 
L 2938 0 
L 2938 2094 
Q 2938 2591 2744 2837 
Q 2550 3084 2163 3084 
Q 1697 3084 1428 2787 
Q 1159 2491 1159 1978 
L 1159 0 
L 581 0 
L 581 3500 
L 1159 3500 
L 1159 2956 
Q 1366 3272 1645 3428 
Q 1925 3584 2291 3584 
Q 2894 3584 3203 3211 
Q 3513 2838 3513 2113 
z
" transform="scale(0.015625)"/>
      <path id="DejaVuSans-63" d="M 3122 3366 
L 3122 2828 
Q 2878 2963 2633 3030 
Q 2388 3097 2138 3097 
Q 1578 3097 1268 2742 
Q 959 2388 959 1747 
Q 959 1106 1268 751 
Q 1578 397 2138 397 
Q 2388 397 2633 464 
Q 2878 531 3122 666 
L 3122 134 
Q 2881 22 2623 -34 
Q 2366 -91 2075 -91 
Q 1284 -91 818 406 
Q 353 903 353 1747 
Q 353 2603 823 3093 
Q 1294 3584 2113 3584 
Q 2378 3584 2631 3529 
Q 2884 3475 3122 3366 
z
" transform="scale(0.015625)"/>
      <path id="DejaVuSans-20" transform="scale(0.015625)"/>
      <path id="DejaVuSans-66" d="M 2375 4863 
L 2375 4384 
L 1825 4384 
Q 1516 4384 1395 4259 
Q 1275 4134 1275 3809 
L 1275 3500 
L 2222 3500 
L 2222 3053 
L 1275 3053 
L 1275 0 
L 697 0 
L 697 3053 
L 147 3053 
L 147 3500 
L 697 3500 
L 697 3744 
Q 697 4328 969 4595 
Q 1241 4863 1831 4863 
L 2375 4863 
z
" transform="scale(0.015625)"/>
      <path id="DejaVuSans-72" d="M 2631 2963 
Q 2534 3019 2420 3045 
Q 2306 3072 2169 3072 
Q 1681 3072 1420 2755 
Q 1159 2438 1159 1844 
L 1159 0 
L 581 0 
L 581 3500 
L 1159 3500 
L 1159 2956 
Q 1341 3275 1631 3429 
Q 1922 3584 2338 3584 
Q 2397 3584 2469 3576 
Q 2541 3569 2628 3553 
L 2631 2963 
z
" transform="scale(0.015625)"/>
      <path id="DejaVuSans-6f" d="M 1959 3097 
Q 1497 3097 1228 2736 
Q 959 2375 959 1747 
Q 959 1119 1226 758 
Q 1494 397 1959 397 
Q 2419 397 2687 759 
Q 2956 1122 2956 1747 
Q 2956 2369 2687 2733 
Q 2419 3097 1959 3097 
z
M 1959 3584 
Q 2709 3584 3137 3096 
Q 3566 2609 3566 1747 
Q 3566 888 3137 398 
Q 2709 -91 1959 -91 
Q 1206 -91 779 398 
Q 353 888 353 1747 
Q 353 2609 779 3096 
Q 1206 3584 1959 3584 
z
" transform="scale(0.015625)"/>
      <path id="DejaVuSans-6d" d="M 3328 2828 
Q 3544 3216 3844 3400 
Q 4144 3584 4550 3584 
Q 5097 3584 5394 3201 
Q 5691 2819 5691 2113 
L 5691 0 
L 5113 0 
L 5113 2094 
Q 5113 2597 4934 2840 
Q 4756 3084 4391 3084 
Q 3944 3084 3684 2787 
Q 3425 2491 3425 1978 
L 3425 0 
L 2847 0 
L 2847 2094 
Q 2847 2600 2669 2842 
Q 2491 3084 2119 3084 
Q 1678 3084 1418 2786 
Q 1159 2488 1159 1978 
L 1159 0 
L 581 0 
L 581 3500 
L 1159 3500 
L 1159 2956 
Q 1356 3278 1631 3431 
Q 1906 3584 2284 3584 
Q 2666 3584 2933 3390 
Q 3200 3197 3328 2828 
z
" transform="scale(0.015625)"/>
      <path id="DejaVuSans-43" d="M 4122 4306 
L 4122 3641 
Q 3803 3938 3442 4084 
Q 3081 4231 2675 4231 
Q 1875 4231 1450 3742 
Q 1025 3253 1025 2328 
Q 1025 1406 1450 917 
Q 1875 428 2675 428 
Q 3081 428 3442 575 
Q 3803 722 4122 1019 
L 4122 359 
Q 3791 134 3420 21 
Q 3050 -91 2638 -91 
Q 1578 -91 968 557 
Q 359 1206 359 2328 
Q 359 3453 968 4101 
Q 1578 4750 2638 4750 
Q 3056 4750 3426 4639 
Q 3797 4528 4122 4306 
z
" transform="scale(0.015625)"/>
     </defs>
     <use xlink:href="#DejaVuSans-44"/>
     <use xlink:href="#DejaVuSans-69" x="77.001953"/>
     <use xlink:href="#DejaVuSans-73" x="104.785156"/>
     <use xlink:href="#DejaVuSans-74" x="156.884766"/>
     <use xlink:href="#DejaVuSans-61" x="196.09375"/>
     <use xlink:href="#DejaVuSans-6e" x="257.373047"/>
     <use xlink:href="#DejaVuSans-63" x="320.751953"/>
     <use xlink:href="#DejaVuSans-65" x="375.732422"/>
     <use xlink:href="#DejaVuSans-20" x="437.255859"/>
     <use xlink:href="#DejaVuSans-66" x="469.042969"/>
     <use xlink:href="#DejaVuSans-72" x="504.248047"/>
     <use xlink:href="#DejaVuSans-6f" x="543.111328"/>
     <use xlink:href="#DejaVuSans-6d" x="604.292969"/>
     <use xlink:href="#DejaVuSans-20" x="701.705078"/>
     <use xlink:href="#DejaVuSans-43" x="733.492188"/>
     <use xlink:href="#DejaVuSans-65" x="803.316406"/>
     <use xlink:href="#DejaVuSans-6e" x="864.839844"/>
     <use xlink:href="#DejaVuSans-74" x="928.21875"/>
     <use xlink:href="#DejaVuSans-65" x="967.427734"/>
     <use xlink:href="#DejaVuSans-72" x="1028.951172"/>
    </g>
   </g>
   <g id="legend_1">
    <g id="patch_7">
     <path d="M 322.727695 77.61375 
L 397.15957 77.61375 
Q 399.55957 77.61375 399.55957 75.21375 
L 399.55957 58.8 
Q 399.55957 56.4 397.15957 56.4 
L 322.727695 56.4 
Q 320.327695 56.4 320.327695 58.8 
L 320.327695 75.21375 
Q 320.327695 77.61375 322.727695 77.61375 
z
" style="fill: #ffffff; opacity: 0.8; stroke: #cccccc; stroke-linejoin: miter"/>
    </g>
    <g id="line2d_13">
     <path d="M 325.127695 66.118125 
L 337.127695 66.118125 
L 349.127695 66.118125 
" style="fill: none; stroke-dasharray: 7.4,3.2; stroke-dashoffset: 0; stroke: #ff0000; stroke-width: 2"/>
    </g>
    <g id="text_11">
     <!-- Model -->
     <g style="fill: #262626" transform="translate(358.727695 70.318125) scale(0.12 -0.12)">
      <defs>
       <path id="DejaVuSans-4d" d="M 628 4666 
L 1569 4666 
L 2759 1491 
L 3956 4666 
L 4897 4666 
L 4897 0 
L 4281 0 
L 4281 4097 
L 3078 897 
L 2444 897 
L 1241 4097 
L 1241 0 
L 628 0 
L 628 4666 
z
" transform="scale(0.015625)"/>
       <path id="DejaVuSans-64" d="M 2906 2969 
L 2906 4863 
L 3481 4863 
L 3481 0 
L 2906 0 
L 2906 525 
Q 2725 213 2448 61 
Q 2172 -91 1784 -91 
Q 1150 -91 751 415 
Q 353 922 353 1747 
Q 353 2572 751 3078 
Q 1150 3584 1784 3584 
Q 2172 3584 2448 3432 
Q 2725 3281 2906 2969 
z
M 947 1747 
Q 947 1113 1208 752 
Q 1469 391 1925 391 
Q 2381 391 2643 752 
Q 2906 1113 2906 1747 
Q 2906 2381 2643 2742 
Q 2381 3103 1925 3103 
Q 1469 3103 1208 2742 
Q 947 2381 947 1747 
z
" transform="scale(0.015625)"/>
      </defs>
      <use xlink:href="#DejaVuSans-4d"/>
      <use xlink:href="#DejaVuSans-6f" x="86.279297"/>
      <use xlink:href="#DejaVuSans-64" x="147.460938"/>
      <use xlink:href="#DejaVuSans-65" x="210.9375"/>
      <use xlink:href="#DejaVuSans-6c" x="272.460938"/>
     </g>
    </g>
   </g>
  </g>
  <g id="axes_2">
   <g id="patch_8">
    <path d="M 466.151778 378.72 
L 814.556972 378.72 
L 814.556972 50.4 
L 466.151778 50.4 
z
" style="fill: #ffffff"/>
   </g>
   <g id="matplotlib.axis_3">
    <g id="xtick_2"/>
   </g>
   <g id="matplotlib.axis_4">
    <g id="ytick_9">
     <g id="line2d_14">
      <path d="M 466.151778 332.649087 
L 814.556972 332.649087 
" clip-path="url(#p5deeb7beb3)" style="fill: none; stroke: #cccccc; stroke-linecap: round"/>
     </g>
     <g id="text_12">
      <!-- 100 -->
      <g style="fill: #262626" transform="translate(433.746778 337.208149) scale(0.12 -0.12)">
       <use xlink:href="#DejaVuSans-31"/>
       <use xlink:href="#DejaVuSans-30" x="63.623047"/>
       <use xlink:href="#DejaVuSans-30" x="127.246094"/>
      </g>
     </g>
    </g>
    <g id="ytick_10">
     <g id="line2d_15">
      <path d="M 466.151778 267.005876 
L 814.556972 267.005876 
" clip-path="url(#p5deeb7beb3)" style="fill: none; stroke: #cccccc; stroke-linecap: round"/>
     </g>
     <g id="text_13">
      <!-- 200 -->
      <g style="fill: #262626" transform="translate(433.746778 271.564939) scale(0.12 -0.12)">
       <use xlink:href="#DejaVuSans-32"/>
       <use xlink:href="#DejaVuSans-30" x="63.623047"/>
       <use xlink:href="#DejaVuSans-30" x="127.246094"/>
      </g>
     </g>
    </g>
    <g id="ytick_11">
     <g id="line2d_16">
      <path d="M 466.151778 201.362665 
L 814.556972 201.362665 
" clip-path="url(#p5deeb7beb3)" style="fill: none; stroke: #cccccc; stroke-linecap: round"/>
     </g>
     <g id="text_14">
      <!-- 300 -->
      <g style="fill: #262626" transform="translate(433.746778 205.921728) scale(0.12 -0.12)">
       <use xlink:href="#DejaVuSans-33"/>
       <use xlink:href="#DejaVuSans-30" x="63.623047"/>
       <use xlink:href="#DejaVuSans-30" x="127.246094"/>
      </g>
     </g>
    </g>
    <g id="ytick_12">
     <g id="line2d_17">
      <path d="M 466.151778 135.719455 
L 814.556972 135.719455 
" clip-path="url(#p5deeb7beb3)" style="fill: none; stroke: #cccccc; stroke-linecap: round"/>
     </g>
     <g id="text_15">
      <!-- 400 -->
      <g style="fill: #262626" transform="translate(433.746778 140.278517) scale(0.12 -0.12)">
       <defs>
        <path id="DejaVuSans-34" d="M 2419 4116 
L 825 1625 
L 2419 1625 
L 2419 4116 
z
M 2253 4666 
L 3047 4666 
L 3047 1625 
L 3713 1625 
L 3713 1100 
L 3047 1100 
L 3047 0 
L 2419 0 
L 2419 1100 
L 313 1100 
L 313 1709 
L 2253 4666 
z
" transform="scale(0.015625)"/>
       </defs>
       <use xlink:href="#DejaVuSans-34"/>
       <use xlink:href="#DejaVuSans-30" x="63.623047"/>
       <use xlink:href="#DejaVuSans-30" x="127.246094"/>
      </g>
     </g>
    </g>
    <g id="ytick_13">
     <g id="line2d_18">
      <path d="M 466.151778 70.076244 
L 814.556972 70.076244 
" clip-path="url(#p5deeb7beb3)" style="fill: none; stroke: #cccccc; stroke-linecap: round"/>
     </g>
     <g id="text_16">
      <!-- 500 -->
      <g style="fill: #262626" transform="translate(433.746778 74.635306) scale(0.12 -0.12)">
       <use xlink:href="#DejaVuSans-35"/>
       <use xlink:href="#DejaVuSans-30" x="63.623047"/>
       <use xlink:href="#DejaVuSans-30" x="127.246094"/>
      </g>
     </g>
    </g>
    <g id="text_17">
     <!-- Pixels -->
     <g style="fill: #262626" transform="translate(426.835215 234.390781) rotate(-90) scale(0.14 -0.14)">
      <use xlink:href="#DejaVuSans-50"/>
      <use xlink:href="#DejaVuSans-69" x="58.052734"/>
      <use xlink:href="#DejaVuSans-78" x="85.835938"/>
      <use xlink:href="#DejaVuSans-65" x="141.890625"/>
      <use xlink:href="#DejaVuSans-6c" x="203.414062"/>
      <use xlink:href="#DejaVuSans-73" x="231.197266"/>
     </g>
    </g>
   </g>
   <g id="PolyCollection_2">
    <defs>
     <path id="mc79c812e11" d="M 640.656468 -22.123636 
L 640.052282 -22.123636 
L 639.836152 -25.138512 
L 639.508694 -28.153388 
L 639.03831 -31.168264 
L 638.395626 -34.18314 
L 637.557058 -37.198017 
L 636.507082 -40.212893 
L 635.238495 -43.227769 
L 633.75083 -46.242645 
L 632.047862 -49.257521 
L 630.135387 -52.272397 
L 628.019935 -55.287273 
L 625.708328 -58.302149 
L 623.20766 -61.317025 
L 620.525797 -64.331901 
L 617.67351 -67.346777 
L 614.669745 -70.361653 
L 611.550293 -73.376529 
L 608.377368 -76.391405 
L 605.244835 -79.406281 
L 602.27341 -82.421157 
L 599.593318 -85.436033 
L 597.317623 -88.450909 
L 595.514632 -91.465785 
L 594.188912 -94.480661 
L 593.276524 -97.495537 
L 592.653268 -100.510413 
L 592.149358 -103.525289 
L 591.563647 -106.540165 
L 590.675055 -109.555041 
L 589.254858 -112.569917 
L 587.085916 -115.584793 
L 583.99139 -118.599669 
L 579.867792 -121.614545 
L 574.710471 -124.629421 
L 568.61909 -127.644298 
L 561.777848 -130.659174 
L 554.416918 -133.67405 
L 546.771309 -136.688926 
L 539.055143 -139.703802 
L 531.46155 -142.718678 
L 524.184541 -145.733554 
L 517.446752 -148.74843 
L 511.512598 -151.763306 
L 506.672695 -154.778182 
L 503.199127 -157.793058 
L 501.285323 -160.807934 
L 500.992297 -163.82281 
L 502.221672 -166.837686 
L 504.726799 -169.852562 
L 508.160517 -172.867438 
L 512.146304 -175.882314 
L 516.352529 -178.89719 
L 520.549016 -181.912066 
L 524.631401 -184.926942 
L 528.609623 -187.941818 
L 532.568391 -190.956694 
L 536.615483 -193.97157 
L 540.83577 -196.986446 
L 545.264842 -200.001322 
L 549.888131 -203.016198 
L 554.662181 -206.031074 
L 559.546862 -209.04595 
L 564.533311 -212.060826 
L 569.653985 -215.075702 
L 574.968643 -218.090579 
L 580.530878 -221.105455 
L 586.349167 -224.120331 
L 592.359724 -227.135207 
L 598.423596 -230.150083 
L 604.350006 -233.164959 
L 609.937007 -236.179835 
L 615.014401 -239.194711 
L 619.474637 -242.209587 
L 623.283702 -245.224463 
L 626.472061 -248.239339 
L 629.112118 -251.254215 
L 631.291478 -254.269091 
L 633.090584 -257.283967 
L 634.57004 -260.298843 
L 635.768743 -263.313719 
L 636.710258 -266.328595 
L 637.412734 -269.343471 
L 637.897759 -272.358347 
L 638.195249 -275.373223 
L 638.343923 -278.388099 
L 638.388626 -281.402975 
L 638.376266 -284.417851 
L 638.351485 -287.432727 
L 638.352426 -290.447603 
L 638.406686 -293.462479 
L 638.528049 -296.477355 
L 638.715095 -299.492231 
L 638.95271 -302.507107 
L 639.216633 -305.521983 
L 639.479886 -308.53686 
L 639.719081 -311.551736 
L 639.918747 -314.566612 
L 640.0727 -317.581488 
L 640.18276 -320.596364 
L 640.52599 -320.596364 
L 640.52599 -320.596364 
L 640.63605 -317.581488 
L 640.790003 -314.566612 
L 640.989669 -311.551736 
L 641.228864 -308.53686 
L 641.492117 -305.521983 
L 641.75604 -302.507107 
L 641.993655 -299.492231 
L 642.180701 -296.477355 
L 642.302064 -293.462479 
L 642.356324 -290.447603 
L 642.357265 -287.432727 
L 642.332484 -284.417851 
L 642.320124 -281.402975 
L 642.364827 -278.388099 
L 642.513501 -275.373223 
L 642.810991 -272.358347 
L 643.296016 -269.343471 
L 643.998492 -266.328595 
L 644.940007 -263.313719 
L 646.13871 -260.298843 
L 647.618166 -257.283967 
L 649.417272 -254.269091 
L 651.596632 -251.254215 
L 654.236689 -248.239339 
L 657.425048 -245.224463 
L 661.234113 -242.209587 
L 665.694349 -239.194711 
L 670.771743 -236.179835 
L 676.358744 -233.164959 
L 682.285154 -230.150083 
L 688.349026 -227.135207 
L 694.359583 -224.120331 
L 700.177872 -221.105455 
L 705.740107 -218.090579 
L 711.054765 -215.075702 
L 716.175439 -212.060826 
L 721.161888 -209.04595 
L 726.046569 -206.031074 
L 730.820619 -203.016198 
L 735.443908 -200.001322 
L 739.87298 -196.986446 
L 744.093267 -193.97157 
L 748.140359 -190.956694 
L 752.099127 -187.941818 
L 756.077349 -184.926942 
L 760.159734 -181.912066 
L 764.356221 -178.89719 
L 768.562446 -175.882314 
L 772.548233 -172.867438 
L 775.981951 -169.852562 
L 778.487078 -166.837686 
L 779.716453 -163.82281 
L 779.423427 -160.807934 
L 777.509623 -157.793058 
L 774.036055 -154.778182 
L 769.196152 -151.763306 
L 763.261998 -148.74843 
L 756.524209 -145.733554 
L 749.2472 -142.718678 
L 741.653607 -139.703802 
L 733.937441 -136.688926 
L 726.291832 -133.67405 
L 718.930902 -130.659174 
L 712.08966 -127.644298 
L 705.998279 -124.629421 
L 700.840958 -121.614545 
L 696.71736 -118.599669 
L 693.622834 -115.584793 
L 691.453892 -112.569917 
L 690.033695 -109.555041 
L 689.145103 -106.540165 
L 688.559392 -103.525289 
L 688.055482 -100.510413 
L 687.432226 -97.495537 
L 686.519838 -94.480661 
L 685.194118 -91.465785 
L 683.391127 -88.450909 
L 681.115432 -85.436033 
L 678.43534 -82.421157 
L 675.463915 -79.406281 
L 672.331382 -76.391405 
L 669.158457 -73.376529 
L 666.039005 -70.361653 
L 663.03524 -67.346777 
L 660.182953 -64.331901 
L 657.50109 -61.317025 
L 655.000422 -58.302149 
L 652.688815 -55.287273 
L 650.573363 -52.272397 
L 648.660888 -49.257521 
L 646.95792 -46.242645 
L 645.470255 -43.227769 
L 644.201668 -40.212893 
L 643.151692 -37.198017 
L 642.313124 -34.18314 
L 641.67044 -31.168264 
L 641.200056 -28.153388 
L 640.872598 -25.138512 
L 640.656468 -22.123636 
z
" style="stroke: #656565; stroke-width: 1.25"/>
    </defs>
    <g clip-path="url(#p5deeb7beb3)">
     <use xlink:href="#mc79c812e11" x="0" y="385.92" style="fill: #a9a9a9; stroke: #656565; stroke-width: 1.25"/>
    </g>
   </g>
   <g id="line2d_19">
    <path d="M 547.338075 249.454566 
L 733.370675 249.454566 
" clip-path="url(#p5deeb7beb3)" style="fill: none; stroke-dasharray: 1.5625,0.9375; stroke-dashoffset: 0; stroke: #656565; stroke-width: 1.25"/>
   </g>
   <g id="line2d_20">
    <path d="M 501.032132 222.50704 
L 779.676618 222.50704 
" clip-path="url(#p5deeb7beb3)" style="fill: none; stroke-dasharray: 3.125,1.25; stroke-dashoffset: 0; stroke: #656565; stroke-width: 1.25"/>
   </g>
   <g id="line2d_21">
    <path d="M 533.748379 194.084275 
L 746.960371 194.084275 
" clip-path="url(#p5deeb7beb3)" style="fill: none; stroke-dasharray: 1.5625,0.9375; stroke-dashoffset: 0; stroke: #656565; stroke-width: 1.25"/>
   </g>
   <g id="line2d_22">
    <path d="M 466.151778 224.7869 
L 814.556972 224.7869 
" clip-path="url(#p5deeb7beb3)" style="fill: none; stroke-dasharray: 7.4,3.2; stroke-dashoffset: 0; stroke: #ff0000; stroke-width: 2"/>
   </g>
   <g id="patch_9">
    <path d="M 466.151778 378.72 
L 466.151778 50.4 
" style="fill: none; stroke: #cccccc; stroke-width: 1.25; stroke-linejoin: miter; stroke-linecap: square"/>
   </g>
   <g id="patch_10">
    <path d="M 814.556972 378.72 
L 814.556972 50.4 
" style="fill: none; stroke: #cccccc; stroke-width: 1.25; stroke-linejoin: miter; stroke-linecap: square"/>
   </g>
   <g id="patch_11">
    <path d="M 466.151778 378.72 
L 814.556972 378.72 
" style="fill: none; stroke: #cccccc; stroke-width: 1.25; stroke-linejoin: miter; stroke-linecap: square"/>
   </g>
   <g id="patch_12">
    <path d="M 466.151778 50.4 
L 814.556972 50.4 
" style="fill: none; stroke: #cccccc; stroke-width: 1.25; stroke-linejoin: miter; stroke-linecap: square"/>
   </g>
   <g id="text_18">
    <!-- Horizontal Dispersion -->
    <g style="fill: #262626" transform="translate(560.118438 44.4) scale(0.15 -0.15)">
     <defs>
      <path id="DejaVuSans-48" d="M 628 4666 
L 1259 4666 
L 1259 2753 
L 3553 2753 
L 3553 4666 
L 4184 4666 
L 4184 0 
L 3553 0 
L 3553 2222 
L 1259 2222 
L 1259 0 
L 628 0 
L 628 4666 
z
" transform="scale(0.015625)"/>
      <path id="DejaVuSans-7a" d="M 353 3500 
L 3084 3500 
L 3084 2975 
L 922 459 
L 3084 459 
L 3084 0 
L 275 0 
L 275 525 
L 2438 3041 
L 353 3041 
L 353 3500 
z
" transform="scale(0.015625)"/>
      <path id="DejaVuSans-70" d="M 1159 525 
L 1159 -1331 
L 581 -1331 
L 581 3500 
L 1159 3500 
L 1159 2969 
Q 1341 3281 1617 3432 
Q 1894 3584 2278 3584 
Q 2916 3584 3314 3078 
Q 3713 2572 3713 1747 
Q 3713 922 3314 415 
Q 2916 -91 2278 -91 
Q 1894 -91 1617 61 
Q 1341 213 1159 525 
z
M 3116 1747 
Q 3116 2381 2855 2742 
Q 2594 3103 2138 3103 
Q 1681 3103 1420 2742 
Q 1159 2381 1159 1747 
Q 1159 1113 1420 752 
Q 1681 391 2138 391 
Q 2594 391 2855 752 
Q 3116 1113 3116 1747 
z
" transform="scale(0.015625)"/>
     </defs>
     <use xlink:href="#DejaVuSans-48"/>
     <use xlink:href="#DejaVuSans-6f" x="75.195312"/>
     <use xlink:href="#DejaVuSans-72" x="136.376953"/>
     <use xlink:href="#DejaVuSans-69" x="177.490234"/>
     <use xlink:href="#DejaVuSans-7a" x="205.273438"/>
     <use xlink:href="#DejaVuSans-6f" x="257.763672"/>
     <use xlink:href="#DejaVuSans-6e" x="318.945312"/>
     <use xlink:href="#DejaVuSans-74" x="382.324219"/>
     <use xlink:href="#DejaVuSans-61" x="421.533203"/>
     <use xlink:href="#DejaVuSans-6c" x="482.8125"/>
     <use xlink:href="#DejaVuSans-20" x="510.595703"/>
     <use xlink:href="#DejaVuSans-44" x="542.382812"/>
     <use xlink:href="#DejaVuSans-69" x="619.384766"/>
     <use xlink:href="#DejaVuSans-73" x="647.167969"/>
     <use xlink:href="#DejaVuSans-70" x="699.267578"/>
     <use xlink:href="#DejaVuSans-65" x="762.744141"/>
     <use xlink:href="#DejaVuSans-72" x="824.267578"/>
     <use xlink:href="#DejaVuSans-73" x="865.380859"/>
     <use xlink:href="#DejaVuSans-69" x="917.480469"/>
     <use xlink:href="#DejaVuSans-6f" x="945.263672"/>
     <use xlink:href="#DejaVuSans-6e" x="1006.445312"/>
    </g>
   </g>
   <g id="legend_2">
    <g id="patch_13">
     <path d="M 731.725097 77.61375 
L 806.156972 77.61375 
Q 808.556972 77.61375 808.556972 75.21375 
L 808.556972 58.8 
Q 808.556972 56.4 806.156972 56.4 
L 731.725097 56.4 
Q 729.325097 56.4 729.325097 58.8 
L 729.325097 75.21375 
Q 729.325097 77.61375 731.725097 77.61375 
z
" style="fill: #ffffff; opacity: 0.8; stroke: #cccccc; stroke-linejoin: miter"/>
    </g>
    <g id="line2d_23">
     <path d="M 734.125097 66.118125 
L 746.125097 66.118125 
L 758.125097 66.118125 
" style="fill: none; stroke-dasharray: 7.4,3.2; stroke-dashoffset: 0; stroke: #ff0000; stroke-width: 2"/>
    </g>
    <g id="text_19">
     <!-- Model -->
     <g style="fill: #262626" transform="translate(767.725097 70.318125) scale(0.12 -0.12)">
      <use xlink:href="#DejaVuSans-4d"/>
      <use xlink:href="#DejaVuSans-6f" x="86.279297"/>
      <use xlink:href="#DejaVuSans-64" x="147.460938"/>
      <use xlink:href="#DejaVuSans-65" x="210.9375"/>
      <use xlink:href="#DejaVuSans-6c" x="272.460938"/>
     </g>
    </g>
   </g>
  </g>
  <g id="axes_3">
   <g id="patch_14">
    <path d="M 875.14918 378.72 
L 1223.554375 378.72 
L 1223.554375 50.4 
L 875.14918 50.4 
z
" style="fill: #ffffff"/>
   </g>
   <g id="matplotlib.axis_5">
    <g id="xtick_3"/>
   </g>
   <g id="matplotlib.axis_6">
    <g id="ytick_14">
     <g id="line2d_24">
      <path d="M 875.14918 338.235425 
L 1223.554375 338.235425 
" clip-path="url(#pbaa90e48ed)" style="fill: none; stroke: #cccccc; stroke-linecap: round"/>
     </g>
     <g id="text_20">
      <!-- 100 -->
      <g style="fill: #262626" transform="translate(842.74418 342.794487) scale(0.12 -0.12)">
       <use xlink:href="#DejaVuSans-31"/>
       <use xlink:href="#DejaVuSans-30" x="63.623047"/>
       <use xlink:href="#DejaVuSans-30" x="127.246094"/>
      </g>
     </g>
    </g>
    <g id="ytick_15">
     <g id="line2d_25">
      <path d="M 875.14918 279.420155 
L 1223.554375 279.420155 
" clip-path="url(#pbaa90e48ed)" style="fill: none; stroke: #cccccc; stroke-linecap: round"/>
     </g>
     <g id="text_21">
      <!-- 150 -->
      <g style="fill: #262626" transform="translate(842.74418 283.979218) scale(0.12 -0.12)">
       <use xlink:href="#DejaVuSans-31"/>
       <use xlink:href="#DejaVuSans-35" x="63.623047"/>
       <use xlink:href="#DejaVuSans-30" x="127.246094"/>
      </g>
     </g>
    </g>
    <g id="ytick_16">
     <g id="line2d_26">
      <path d="M 875.14918 220.604886 
L 1223.554375 220.604886 
" clip-path="url(#pbaa90e48ed)" style="fill: none; stroke: #cccccc; stroke-linecap: round"/>
     </g>
     <g id="text_22">
      <!-- 200 -->
      <g style="fill: #262626" transform="translate(842.74418 225.163949) scale(0.12 -0.12)">
       <use xlink:href="#DejaVuSans-32"/>
       <use xlink:href="#DejaVuSans-30" x="63.623047"/>
       <use xlink:href="#DejaVuSans-30" x="127.246094"/>
      </g>
     </g>
    </g>
    <g id="ytick_17">
     <g id="line2d_27">
      <path d="M 875.14918 161.789617 
L 1223.554375 161.789617 
" clip-path="url(#pbaa90e48ed)" style="fill: none; stroke: #cccccc; stroke-linecap: round"/>
     </g>
     <g id="text_23">
      <!-- 250 -->
      <g style="fill: #262626" transform="translate(842.74418 166.348679) scale(0.12 -0.12)">
       <use xlink:href="#DejaVuSans-32"/>
       <use xlink:href="#DejaVuSans-35" x="63.623047"/>
       <use xlink:href="#DejaVuSans-30" x="127.246094"/>
      </g>
     </g>
    </g>
    <g id="ytick_18">
     <g id="line2d_28">
      <path d="M 875.14918 102.974348 
L 1223.554375 102.974348 
" clip-path="url(#pbaa90e48ed)" style="fill: none; stroke: #cccccc; stroke-linecap: round"/>
     </g>
     <g id="text_24">
      <!-- 300 -->
      <g style="fill: #262626" transform="translate(842.74418 107.53341) scale(0.12 -0.12)">
       <use xlink:href="#DejaVuSans-33"/>
       <use xlink:href="#DejaVuSans-30" x="63.623047"/>
       <use xlink:href="#DejaVuSans-30" x="127.246094"/>
      </g>
     </g>
    </g>
    <g id="text_25">
     <!-- Pixels -->
     <g style="fill: #262626" transform="translate(835.832618 234.390781) rotate(-90) scale(0.14 -0.14)">
      <use xlink:href="#DejaVuSans-50"/>
      <use xlink:href="#DejaVuSans-69" x="58.052734"/>
      <use xlink:href="#DejaVuSans-78" x="85.835938"/>
      <use xlink:href="#DejaVuSans-65" x="141.890625"/>
      <use xlink:href="#DejaVuSans-6c" x="203.414062"/>
      <use xlink:href="#DejaVuSans-73" x="231.197266"/>
     </g>
    </g>
   </g>
   <g id="PolyCollection_3">
    <defs>
     <path id="mf1d6269c83" d="M 1049.711682 -22.123636 
L 1048.991873 -22.123636 
L 1048.752523 -25.138512 
L 1048.406262 -28.153388 
L 1047.933869 -31.168264 
L 1047.322841 -34.18314 
L 1046.567325 -37.198017 
L 1045.664086 -40.212893 
L 1044.605591 -43.227769 
L 1043.373642 -46.242645 
L 1041.937924 -49.257521 
L 1040.262054 -52.272397 
L 1038.31559 -55.287273 
L 1036.085942 -58.302149 
L 1033.58239 -61.317025 
L 1030.827185 -64.331901 
L 1027.83517 -67.346777 
L 1024.590229 -70.361653 
L 1021.030057 -73.376529 
L 1017.048271 -76.391405 
L 1012.515841 -79.406281 
L 1007.315722 -82.421157 
L 1001.379294 -85.436033 
L 994.712643 -88.450909 
L 987.404619 -91.465785 
L 979.614882 -94.480661 
L 971.546664 -97.495537 
L 963.413583 -100.510413 
L 955.411394 -103.525289 
L 947.703176 -106.540165 
L 940.420815 -109.555041 
L 933.678503 -112.569917 
L 927.588522 -115.584793 
L 922.268545 -118.599669 
L 917.834027 -121.614545 
L 914.37726 -124.629421 
L 911.942264 -127.644298 
L 910.50805 -130.659174 
L 909.9897 -133.67405 
L 910.25865 -136.688926 
L 911.174381 -139.703802 
L 912.614183 -142.718678 
L 914.488754 -145.733554 
L 916.738857 -148.74843 
L 919.31835 -151.763306 
L 922.176409 -154.778182 
L 925.252112 -157.793058 
L 928.487201 -160.807934 
L 931.851221 -163.82281 
L 935.364145 -166.837686 
L 939.100661 -169.852562 
L 943.168834 -172.867438 
L 947.669283 -175.882314 
L 952.651702 -178.89719 
L 958.087062 -181.912066 
L 963.8657 -184.926942 
L 969.818695 -187.941818 
L 975.750307 -190.956694 
L 981.467887 -193.97157 
L 986.802047 -196.986446 
L 991.618799 -200.001322 
L 995.83026 -203.016198 
L 999.408456 -206.031074 
L 1002.399565 -209.04595 
L 1004.929284 -212.060826 
L 1007.189086 -215.075702 
L 1009.399642 -218.090579 
L 1011.758483 -221.105455 
L 1014.388169 -224.120331 
L 1017.303554 -227.135207 
L 1020.410632 -230.150083 
L 1023.537722 -233.164959 
L 1026.487892 -236.179835 
L 1029.094578 -239.194711 
L 1031.2629 -242.209587 
L 1032.985852 -245.224463 
L 1034.33415 -248.239339 
L 1035.426854 -251.254215 
L 1036.394478 -254.269091 
L 1037.346261 -257.283967 
L 1038.349621 -260.298843 
L 1039.42456 -263.313719 
L 1040.550821 -266.328595 
L 1041.682588 -269.343471 
L 1042.764979 -272.358347 
L 1043.748064 -275.373223 
L 1044.596467 -278.388099 
L 1045.294442 -281.402975 
L 1045.846998 -284.417851 
L 1046.277412 -287.432727 
L 1046.621339 -290.447603 
L 1046.918247 -293.462479 
L 1047.202062 -296.477355 
L 1047.493714 -299.492231 
L 1047.798025 -302.507107 
L 1048.105754 -305.521983 
L 1048.399599 -308.53686 
L 1048.661492 -311.551736 
L 1048.878463 -314.566612 
L 1049.045434 -317.581488 
L 1049.164871 -320.596364 
L 1049.538685 -320.596364 
L 1049.538685 -320.596364 
L 1049.658121 -317.581488 
L 1049.825093 -314.566612 
L 1050.042063 -311.551736 
L 1050.303956 -308.53686 
L 1050.597801 -305.521983 
L 1050.90553 -302.507107 
L 1051.209841 -299.492231 
L 1051.501493 -296.477355 
L 1051.785308 -293.462479 
L 1052.082217 -290.447603 
L 1052.426143 -287.432727 
L 1052.856557 -284.417851 
L 1053.409113 -281.402975 
L 1054.107089 -278.388099 
L 1054.955491 -275.373223 
L 1055.938576 -272.358347 
L 1057.020968 -269.343471 
L 1058.152734 -266.328595 
L 1059.278995 -263.313719 
L 1060.353934 -260.298843 
L 1061.357294 -257.283967 
L 1062.309077 -254.269091 
L 1063.276701 -251.254215 
L 1064.369405 -248.239339 
L 1065.717703 -245.224463 
L 1067.440655 -242.209587 
L 1069.608977 -239.194711 
L 1072.215663 -236.179835 
L 1075.165833 -233.164959 
L 1078.292924 -230.150083 
L 1081.400001 -227.135207 
L 1084.315386 -224.120331 
L 1086.945072 -221.105455 
L 1089.303913 -218.090579 
L 1091.514469 -215.075702 
L 1093.774271 -212.060826 
L 1096.30399 -209.04595 
L 1099.295099 -206.031074 
L 1102.873295 -203.016198 
L 1107.084756 -200.001322 
L 1111.901508 -196.986446 
L 1117.235668 -193.97157 
L 1122.953248 -190.956694 
L 1128.884861 -187.941818 
L 1134.837855 -184.926942 
L 1140.616493 -181.912066 
L 1146.051853 -178.89719 
L 1151.034272 -175.882314 
L 1155.534721 -172.867438 
L 1159.602894 -169.852562 
L 1163.33941 -166.837686 
L 1166.852334 -163.82281 
L 1170.216354 -160.807934 
L 1173.451444 -157.793058 
L 1176.527147 -154.778182 
L 1179.385205 -151.763306 
L 1181.964699 -148.74843 
L 1184.214801 -145.733554 
L 1186.089373 -142.718678 
L 1187.529174 -139.703802 
L 1188.444906 -136.688926 
L 1188.713856 -133.67405 
L 1188.195505 -130.659174 
L 1186.761291 -127.644298 
L 1184.326295 -124.629421 
L 1180.869528 -121.614545 
L 1176.435011 -118.599669 
L 1171.115033 -115.584793 
L 1165.025052 -112.569917 
L 1158.28274 -109.555041 
L 1151.000379 -106.540165 
L 1143.292161 -103.525289 
L 1135.289972 -100.510413 
L 1127.156891 -97.495537 
L 1119.088673 -94.480661 
L 1111.298937 -91.465785 
L 1103.990912 -88.450909 
L 1097.324262 -85.436033 
L 1091.387833 -82.421157 
L 1086.187714 -79.406281 
L 1081.655285 -76.391405 
L 1077.673499 -73.376529 
L 1074.113326 -70.361653 
L 1070.868385 -67.346777 
L 1067.87637 -64.331901 
L 1065.121165 -61.317025 
L 1062.617614 -58.302149 
L 1060.387965 -55.287273 
L 1058.441501 -52.272397 
L 1056.765631 -49.257521 
L 1055.329913 -46.242645 
L 1054.097965 -43.227769 
L 1053.039469 -40.212893 
L 1052.13623 -37.198017 
L 1051.380714 -34.18314 
L 1050.769686 -31.168264 
L 1050.297293 -28.153388 
L 1049.951032 -25.138512 
L 1049.711682 -22.123636 
z
" style="stroke: #656565; stroke-width: 1.25"/>
    </defs>
    <g clip-path="url(#pbaa90e48ed)">
     <use xlink:href="#mf1d6269c83" x="0" y="385.92" style="fill: #a9a9a9; stroke: #656565; stroke-width: 1.25"/>
    </g>
   </g>
   <g id="line2d_29">
    <path d="M 921.606926 266.870519 
L 1177.096629 266.870519 
" clip-path="url(#pbaa90e48ed)" style="fill: none; stroke-dasharray: 1.5625,0.9375; stroke-dashoffset: 0; stroke: #656565; stroke-width: 1.25"/>
   </g>
   <g id="line2d_30">
    <path d="M 913.919844 241.101425 
L 1184.783711 241.101425 
" clip-path="url(#pbaa90e48ed)" style="fill: none; stroke-dasharray: 3.125,1.25; stroke-dashoffset: 0; stroke: #656565; stroke-width: 1.25"/>
   </g>
   <g id="line2d_31">
    <path d="M 948.527168 209.518578 
L 1150.176388 209.518578 
" clip-path="url(#pbaa90e48ed)" style="fill: none; stroke-dasharray: 1.5625,0.9375; stroke-dashoffset: 0; stroke: #656565; stroke-width: 1.25"/>
   </g>
   <g id="line2d_32">
    <path d="M 875.14918 236.421185 
L 1223.554375 236.421185 
" clip-path="url(#pbaa90e48ed)" style="fill: none; stroke-dasharray: 7.4,3.2; stroke-dashoffset: 0; stroke: #ff0000; stroke-width: 2"/>
   </g>
   <g id="patch_15">
    <path d="M 875.14918 378.72 
L 875.14918 50.4 
" style="fill: none; stroke: #cccccc; stroke-width: 1.25; stroke-linejoin: miter; stroke-linecap: square"/>
   </g>
   <g id="patch_16">
    <path d="M 1223.554375 378.72 
L 1223.554375 50.4 
" style="fill: none; stroke: #cccccc; stroke-width: 1.25; stroke-linejoin: miter; stroke-linecap: square"/>
   </g>
   <g id="patch_17">
    <path d="M 875.14918 378.72 
L 1223.554375 378.72 
" style="fill: none; stroke: #cccccc; stroke-width: 1.25; stroke-linejoin: miter; stroke-linecap: square"/>
   </g>
   <g id="patch_18">
    <path d="M 875.14918 50.4 
L 1223.554375 50.4 
" style="fill: none; stroke: #cccccc; stroke-width: 1.25; stroke-linejoin: miter; stroke-linecap: square"/>
   </g>
   <g id="text_26">
    <!-- Vertical Dispersion -->
    <g style="fill: #262626" transform="translate(979.335762 44.4) scale(0.15 -0.15)">
     <defs>
      <path id="DejaVuSans-56" d="M 1831 0 
L 50 4666 
L 709 4666 
L 2188 738 
L 3669 4666 
L 4325 4666 
L 2547 0 
L 1831 0 
z
" transform="scale(0.015625)"/>
     </defs>
     <use xlink:href="#DejaVuSans-56"/>
     <use xlink:href="#DejaVuSans-65" x="60.658203"/>
     <use xlink:href="#DejaVuSans-72" x="122.181641"/>
     <use xlink:href="#DejaVuSans-74" x="163.294922"/>
     <use xlink:href="#DejaVuSans-69" x="202.503906"/>
     <use xlink:href="#DejaVuSans-63" x="230.287109"/>
     <use xlink:href="#DejaVuSans-61" x="285.267578"/>
     <use xlink:href="#DejaVuSans-6c" x="346.546875"/>
     <use xlink:href="#DejaVuSans-20" x="374.330078"/>
     <use xlink:href="#DejaVuSans-44" x="406.117188"/>
     <use xlink:href="#DejaVuSans-69" x="483.119141"/>
     <use xlink:href="#DejaVuSans-73" x="510.902344"/>
     <use xlink:href="#DejaVuSans-70" x="563.001953"/>
     <use xlink:href="#DejaVuSans-65" x="626.478516"/>
     <use xlink:href="#DejaVuSans-72" x="688.001953"/>
     <use xlink:href="#DejaVuSans-73" x="729.115234"/>
     <use xlink:href="#DejaVuSans-69" x="781.214844"/>
     <use xlink:href="#DejaVuSans-6f" x="808.998047"/>
     <use xlink:href="#DejaVuSans-6e" x="870.179688"/>
    </g>
   </g>
   <g id="legend_3">
    <g id="patch_19">
     <path d="M 1140.7225 77.61375 
L 1215.154375 77.61375 
Q 1217.554375 77.61375 1217.554375 75.21375 
L 1217.554375 58.8 
Q 1217.554375 56.4 1215.154375 56.4 
L 1140.7225 56.4 
Q 1138.3225 56.4 1138.3225 58.8 
L 1138.3225 75.21375 
Q 1138.3225 77.61375 1140.7225 77.61375 
z
" style="fill: #ffffff; opacity: 0.8; stroke: #cccccc; stroke-linejoin: miter"/>
    </g>
    <g id="line2d_33">
     <path d="M 1143.1225 66.118125 
L 1155.1225 66.118125 
L 1167.1225 66.118125 
" style="fill: none; stroke-dasharray: 7.4,3.2; stroke-dashoffset: 0; stroke: #ff0000; stroke-width: 2"/>
    </g>
    <g id="text_27">
     <!-- Model -->
     <g style="fill: #262626" transform="translate(1176.7225 70.318125) scale(0.12 -0.12)">
      <use xlink:href="#DejaVuSans-4d"/>
      <use xlink:href="#DejaVuSans-6f" x="86.279297"/>
      <use xlink:href="#DejaVuSans-64" x="147.460938"/>
      <use xlink:href="#DejaVuSans-65" x="210.9375"/>
      <use xlink:href="#DejaVuSans-6c" x="272.460938"/>
     </g>
    </g>
   </g>
  </g>
  <g id="text_28">
   <!-- Human Gaze vs Idealized Center-Bias Model -->
   <g style="fill: #262626" transform="translate(380.95875 22.396875) scale(0.2 -0.2)">
    <defs>
     <path id="DejaVuSans-75" d="M 544 1381 
L 544 3500 
L 1119 3500 
L 1119 1403 
Q 1119 906 1312 657 
Q 1506 409 1894 409 
Q 2359 409 2629 706 
Q 2900 1003 2900 1516 
L 2900 3500 
L 3475 3500 
L 3475 0 
L 2900 0 
L 2900 538 
Q 2691 219 2414 64 
Q 2138 -91 1772 -91 
Q 1169 -91 856 284 
Q 544 659 544 1381 
z
M 1991 3584 
L 1991 3584 
z
" transform="scale(0.015625)"/>
     <path id="DejaVuSans-47" d="M 3809 666 
L 3809 1919 
L 2778 1919 
L 2778 2438 
L 4434 2438 
L 4434 434 
Q 4069 175 3628 42 
Q 3188 -91 2688 -91 
Q 1594 -91 976 548 
Q 359 1188 359 2328 
Q 359 3472 976 4111 
Q 1594 4750 2688 4750 
Q 3144 4750 3555 4637 
Q 3966 4525 4313 4306 
L 4313 3634 
Q 3963 3931 3569 4081 
Q 3175 4231 2741 4231 
Q 1884 4231 1454 3753 
Q 1025 3275 1025 2328 
Q 1025 1384 1454 906 
Q 1884 428 2741 428 
Q 3075 428 3337 486 
Q 3600 544 3809 666 
z
" transform="scale(0.015625)"/>
     <path id="DejaVuSans-76" d="M 191 3500 
L 800 3500 
L 1894 563 
L 2988 3500 
L 3597 3500 
L 2284 0 
L 1503 0 
L 191 3500 
z
" transform="scale(0.015625)"/>
     <path id="DejaVuSans-49" d="M 628 4666 
L 1259 4666 
L 1259 0 
L 628 0 
L 628 4666 
z
" transform="scale(0.015625)"/>
     <path id="DejaVuSans-2d" d="M 313 2009 
L 1997 2009 
L 1997 1497 
L 313 1497 
L 313 2009 
z
" transform="scale(0.015625)"/>
     <path id="DejaVuSans-42" d="M 1259 2228 
L 1259 519 
L 2272 519 
Q 2781 519 3026 730 
Q 3272 941 3272 1375 
Q 3272 1813 3026 2020 
Q 2781 2228 2272 2228 
L 1259 2228 
z
M 1259 4147 
L 1259 2741 
L 2194 2741 
Q 2656 2741 2882 2914 
Q 3109 3088 3109 3444 
Q 3109 3797 2882 3972 
Q 2656 4147 2194 4147 
L 1259 4147 
z
M 628 4666 
L 2241 4666 
Q 2963 4666 3353 4366 
Q 3744 4066 3744 3513 
Q 3744 3084 3544 2831 
Q 3344 2578 2956 2516 
Q 3422 2416 3680 2098 
Q 3938 1781 3938 1306 
Q 3938 681 3513 340 
Q 3088 0 2303 0 
L 628 0 
L 628 4666 
z
" transform="scale(0.015625)"/>
    </defs>
    <use xlink:href="#DejaVuSans-48"/>
    <use xlink:href="#DejaVuSans-75" x="75.195312"/>
    <use xlink:href="#DejaVuSans-6d" x="138.574219"/>
    <use xlink:href="#DejaVuSans-61" x="235.986328"/>
    <use xlink:href="#DejaVuSans-6e" x="297.265625"/>
    <use xlink:href="#DejaVuSans-20" x="360.644531"/>
    <use xlink:href="#DejaVuSans-47" x="392.431641"/>
    <use xlink:href="#DejaVuSans-61" x="469.921875"/>
    <use xlink:href="#DejaVuSans-7a" x="531.201172"/>
    <use xlink:href="#DejaVuSans-65" x="583.691406"/>
    <use xlink:href="#DejaVuSans-20" x="645.214844"/>
    <use xlink:href="#DejaVuSans-76" x="677.001953"/>
    <use xlink:href="#DejaVuSans-73" x="736.181641"/>
    <use xlink:href="#DejaVuSans-20" x="788.28125"/>
    <use xlink:href="#DejaVuSans-49" x="820.068359"/>
    <use xlink:href="#DejaVuSans-64" x="849.560547"/>
    <use xlink:href="#DejaVuSans-65" x="913.037109"/>
    <use xlink:href="#DejaVuSans-61" x="974.560547"/>
    <use xlink:href="#DejaVuSans-6c" x="1035.839844"/>
    <use xlink:href="#DejaVuSans-69" x="1063.623047"/>
    <use xlink:href="#DejaVuSans-7a" x="1091.40625"/>
    <use xlink:href="#DejaVuSans-65" x="1143.896484"/>
    <use xlink:href="#DejaVuSans-64" x="1205.419922"/>
    <use xlink:href="#DejaVuSans-20" x="1268.896484"/>
    <use xlink:href="#DejaVuSans-43" x="1300.683594"/>
    <use xlink:href="#DejaVuSans-65" x="1370.507812"/>
    <use xlink:href="#DejaVuSans-6e" x="1432.03125"/>
    <use xlink:href="#DejaVuSans-74" x="1495.410156"/>
    <use xlink:href="#DejaVuSans-65" x="1534.619141"/>
    <use xlink:href="#DejaVuSans-72" x="1596.142578"/>
    <use xlink:href="#DejaVuSans-2d" x="1630.880859"/>
    <use xlink:href="#DejaVuSans-42" x="1663.339844"/>
    <use xlink:href="#DejaVuSans-69" x="1731.943359"/>
    <use xlink:href="#DejaVuSans-61" x="1759.726562"/>
    <use xlink:href="#DejaVuSans-73" x="1821.005859"/>
    <use xlink:href="#DejaVuSans-20" x="1873.105469"/>
    <use xlink:href="#DejaVuSans-4d" x="1904.892578"/>
    <use xlink:href="#DejaVuSans-6f" x="1991.171875"/>
    <use xlink:href="#DejaVuSans-64" x="2052.353516"/>
    <use xlink:href="#DejaVuSans-65" x="2115.830078"/>
    <use xlink:href="#DejaVuSans-6c" x="2177.353516"/>
   </g>
  </g>
 </g>
 <defs>
  <clipPath id="p583387ba11">
   <rect x="57.154375" y="50.4" width="348.405195" height="328.32"/>
  </clipPath>
  <clipPath id="p5deeb7beb3">
   <rect x="466.151778" y="50.4" width="348.405195" height="328.32"/>
  </clipPath>
  <clipPath id="pbaa90e48ed">
   <rect x="875.14918" y="50.4" width="348.405195" height="328.32"/>
  </clipPath>
 </defs>
</svg>
